M48
METRIC,LZ,000.000
;FILE_FORMAT=3:3
;TYPE=PLATED
;Layer: PTH_Through
;EasyEDA v6.5.9, 2022-07-24 08:21:13
;5bc8cb45828b4c0bbea3d3a06f8b76a5,bf633cf64d8a430dba0ab8f24d4e683d,10
;Gerber Generator version 0.2
;Holesize 1 = 0.301 mm
T01C0.301
;Holesize 2 = 0.712 mm
T02C0.712
;Holesize 3 = 0.901 mm
T03C0.901
;Holesize 4 = 0.915 mm
T04C0.915
;Holesize 5 = 1.000 mm
T05C1.000
;Holesize 6 = 1.101 mm
T06C1.101
%
G05
G90
T01
X069850Y-026670
X056309Y-027940
X064267Y-026131
T02
X073660Y-015240
X073660Y-012700
T03
X025400Y-044450
X010160Y-041910
X010160Y-036829
X010160Y-031749
X010160Y-026669
X010160Y-021589
X010160Y-016509
X010160Y-011429
X025400Y-008890
X025400Y-013971
X025400Y-019051
X025400Y-024131
X025400Y-029211
X025400Y-034291
X025400Y-039370
X025400Y-041910
X025400Y-036830
X025400Y-031750
X025400Y-026670
X025400Y-021590
X025400Y-016510
X025400Y-011430
X010160Y-008890
X010160Y-013970
X010160Y-019050
X010160Y-024130
X010160Y-029210
X010160Y-034290
X010160Y-039370
X010160Y-044450
T04
X013970Y-059690
X016510Y-059690
X019050Y-059690
X021590Y-059690
T05
X034220Y-050959
X044520Y-050959
X034220Y-056515
X044520Y-056515
X034220Y-062071
X044520Y-062071
X034220Y-067628
X044520Y-067628
X034220Y-073184
X044520Y-073184
X034220Y-078740
X044520Y-078740
X034220Y-084296
X044520Y-084296
X034220Y-089853
X044520Y-089853
X034220Y-095409
X044520Y-095409
X034220Y-004717
X044520Y-004717
X034220Y-010341
X044520Y-010341
X034220Y-015966
X044520Y-015966
X034220Y-021590
X044520Y-021590
X034220Y-027214
X044520Y-027214
X034220Y-032839
X044520Y-032839
X034220Y-038463
X044520Y-038463
X034220Y-044087
X044520Y-044087
X057052Y-083821
X057049Y-081279
X059591Y-083820
X059589Y-081279
X062131Y-083820
X062129Y-081279
X064671Y-083820
X064669Y-081279
X067211Y-083820
X067209Y-081279
X069850Y-010160
X067310Y-010160
X064770Y-010160
X062230Y-010160
X059690Y-010160
X057150Y-010160
X054610Y-010160
X052070Y-010160
X052070Y-017780
X054610Y-017780
X057150Y-017780
X059690Y-017780
X062230Y-017780
X064770Y-017780
X067310Y-017780
X069850Y-017780
X057152Y-045721
X057149Y-043179
X059691Y-045720
X059689Y-043179
X062231Y-045720
X062229Y-043179
X064771Y-045720
X064769Y-043179
X067311Y-045720
X067309Y-043179
T06
X069850Y-071120
X069850Y-068580
X067310Y-071120
X067310Y-068580
X064770Y-071120
X064770Y-068580
X062230Y-071120
X062230Y-068580
X059690Y-071120
X059690Y-068580
X057150Y-071120
X057150Y-068580
X054610Y-071120
X054610Y-068580
X052070Y-071120
X052070Y-068580
X069850Y-031750
X069850Y-029210
X067310Y-031750
X067310Y-029210
X064770Y-031750
X064770Y-029210
X062230Y-031750
X062230Y-029210
X059690Y-031750
X059690Y-029210
X057150Y-031750
X057150Y-029210
X054610Y-031750
X054610Y-029210
X052070Y-031750
X052070Y-029210
X013970Y-057150
X016510Y-057150
X019050Y-057150
X021590Y-057150
M30
