G04 Layer: BottomLayer*
G04 EasyEDA v6.5.9, 2022-07-24 08:21:13*
G04 5bc8cb45828b4c0bbea3d3a06f8b76a5,bf633cf64d8a430dba0ab8f24d4e683d,10*
G04 Gerber Generator version 0.2*
G04 Scale: 100 percent, Rotated: No, Reflected: No *
G04 Dimensions in millimeters *
G04 leading zeros omitted , absolute positions ,4 integer and 5 decimal *
%FSLAX45Y45*%
%MOMM*%

%ADD10C,0.5000*%
%ADD11C,0.2540*%
%ADD12C,1.1938*%
%ADD13C,2.0000*%
%ADD14C,1.5240*%
%ADD15R,1.6000X1.6000*%
%ADD16C,1.6000*%
%ADD17C,1.7000*%
%ADD18C,0.6000*%
%ADD19C,0.0163*%

%LPD*%
D10*
X1778000Y-4981473D02*
G01*
X1778000Y-4445000D01*
X1016000Y-3683000D01*
D11*
X1397000Y-5715000D02*
G01*
X1397000Y-5588000D01*
X1397000Y-5588000D02*
G01*
X1397000Y-5715000D01*
D10*
X1397000Y-5588000D02*
G01*
X1778000Y-5136464D01*
X1778000Y-4981473D01*
D11*
X3421989Y-8429625D02*
G01*
X3896385Y-8429625D01*
X4452010Y-8985250D01*
X4452010Y-5651500D02*
G01*
X3896385Y-5095875D01*
X3421989Y-5095875D01*
X3421989Y-8985250D02*
G01*
X3896385Y-8985250D01*
X4452010Y-9540875D01*
X6985000Y-7112000D02*
G01*
X6198133Y-7898866D01*
X5780176Y-7898866D01*
X4452010Y-9227032D01*
X4452010Y-9540875D01*
X6731000Y-7112000D02*
G01*
X6545986Y-7297013D01*
X6289040Y-7297013D01*
X4600803Y-8985250D01*
X4452010Y-8985250D01*
X4452010Y-8429625D02*
G01*
X4452010Y-8193786D01*
X3421989Y-7874000D02*
G01*
X4132224Y-7874000D01*
X4452010Y-8193786D01*
X4452010Y-8193786D02*
G01*
X5322366Y-8193786D01*
X6404152Y-7112000D01*
X6477000Y-7112000D01*
X4452010Y-7874000D02*
G01*
X4452010Y-7764779D01*
X3421989Y-7318375D02*
G01*
X4005605Y-7318375D01*
X4452010Y-7764779D01*
X4452010Y-7764779D02*
G01*
X5570220Y-7764779D01*
X6223000Y-7112000D01*
X4452010Y-7318375D02*
G01*
X3896385Y-6762750D01*
X3421989Y-6762750D01*
X5969000Y-7112000D02*
G01*
X5762625Y-7318375D01*
X4452010Y-7318375D01*
X4452010Y-6721779D02*
G01*
X5578779Y-6721779D01*
X5715000Y-6858000D01*
X4452010Y-6762750D02*
G01*
X4452010Y-6721779D01*
X4452010Y-6721779D02*
G01*
X3937355Y-6207125D01*
X3421989Y-6207125D01*
X6985000Y-2921000D02*
G01*
X6677126Y-2613126D01*
X6426657Y-2613126D01*
X6223000Y-1778000D02*
G01*
X5947663Y-1502663D01*
X4767859Y-1502663D01*
X4335399Y-1070203D01*
X4335399Y-588314D01*
X4452010Y-471703D01*
X6477000Y-1778000D02*
G01*
X6079007Y-1380007D01*
X4797882Y-1380007D01*
X4452010Y-1034135D01*
X5630925Y-2794000D02*
G01*
X5636133Y-2788793D01*
X5836793Y-2788793D01*
X5969000Y-2921000D01*
X6985000Y-1016000D02*
G01*
X7160031Y-1191031D01*
X7160031Y-1826717D01*
X6431686Y-2555062D01*
X6334937Y-2555062D01*
X5969000Y-2921000D01*
X4452010Y-3846296D02*
G01*
X4789703Y-3846296D01*
X5461000Y-3175000D01*
X6731000Y-1016000D02*
G01*
X7103541Y-1388541D01*
X7103541Y-1813610D01*
X6402857Y-2514295D01*
X5828512Y-2514295D01*
X5461000Y-2881807D01*
X5461000Y-2921000D01*
X5207000Y-2921000D02*
G01*
X6179362Y-1948637D01*
X6728713Y-1948637D01*
X6840118Y-1837232D01*
X6840118Y-1633118D01*
X6223000Y-1016000D01*
X1651000Y-5969000D02*
G01*
X1397000Y-5715000D01*
X6477000Y-1016000D02*
G01*
X5827496Y-366496D01*
X2300503Y-366496D01*
X1016000Y-1651000D01*
X5461000Y-1778000D02*
G01*
X4723409Y-2515590D01*
X2945409Y-2515590D01*
X2540000Y-2921000D01*
X5715000Y-1778000D02*
G01*
X4318000Y-3175000D01*
X2540000Y-3175000D01*
X5207000Y-1778000D02*
G01*
X3429000Y-1778000D01*
X2540000Y-2667000D01*
X4452010Y-2159000D02*
G01*
X4997322Y-2159000D01*
X5334000Y-1822322D01*
X5334000Y-1746097D01*
X5411088Y-1669008D01*
X5860008Y-1669008D01*
X5969000Y-1778000D01*
X4452010Y-1596567D02*
G01*
X5958890Y-1596567D01*
X6096000Y-1733677D01*
X6096000Y-1811020D01*
X6171945Y-1886965D01*
X6622034Y-1886965D01*
X6731000Y-1778000D01*
X4452010Y-6207125D02*
G01*
X3896385Y-5651500D01*
X3421989Y-5651500D01*
D10*
X1778000Y-4981447D02*
G01*
X1778000Y-4953000D01*
X4309109Y-4953000D01*
X4452111Y-5096002D01*
X4452111Y-5096002D02*
G01*
X5611113Y-3937000D01*
X5969000Y-3937000D01*
X6096000Y-3810000D01*
X6604000Y-3810000D01*
X7239000Y-3175000D01*
X7239000Y-2794000D01*
X7112000Y-2667000D01*
X6985000Y-2667000D01*
D12*
G01*
X7366000Y-1524000D03*
G01*
X7366000Y-1270000D03*
D13*
G01*
X6985000Y-7112000D03*
G01*
X6985000Y-6858000D03*
G01*
X6731000Y-7112000D03*
G01*
X6731000Y-6858000D03*
G01*
X6477000Y-7112000D03*
G01*
X6477000Y-6858000D03*
G01*
X6223000Y-7112000D03*
G01*
X6223000Y-6858000D03*
G01*
X5969000Y-7112000D03*
G01*
X5969000Y-6858000D03*
G01*
X5715000Y-7112000D03*
G01*
X5715000Y-6858000D03*
G01*
X5461000Y-7112000D03*
G01*
X5461000Y-6858000D03*
G01*
X5207000Y-7112000D03*
G36*
X5107000Y-6758000D02*
G01*
X5306999Y-6758000D01*
X5306999Y-6957999D01*
X5107000Y-6957999D01*
G37*
G01*
X6985000Y-3175000D03*
G01*
X6985000Y-2921000D03*
G01*
X6731000Y-3175000D03*
G01*
X6731000Y-2921000D03*
G01*
X6477000Y-3175000D03*
G01*
X6477000Y-2921000D03*
G01*
X6223000Y-3175000D03*
G01*
X6223000Y-2921000D03*
G01*
X5969000Y-3175000D03*
G01*
X5969000Y-2921000D03*
G01*
X5715000Y-3175000D03*
G01*
X5715000Y-2921000D03*
G01*
X5461000Y-3175000D03*
G01*
X5461000Y-2921000D03*
G01*
X5207000Y-3175000D03*
G36*
X5107000Y-2821000D02*
G01*
X5306999Y-2821000D01*
X5306999Y-3020999D01*
X5107000Y-3020999D01*
G37*
D14*
G01*
X3421989Y-5095875D03*
G01*
X4452010Y-5095875D03*
G01*
X3421989Y-5651500D03*
G01*
X4452010Y-5651500D03*
G01*
X3421989Y-6207125D03*
G01*
X4452010Y-6207125D03*
G01*
X3421989Y-6762750D03*
G01*
X4452010Y-6762750D03*
G01*
X3421989Y-7318375D03*
G01*
X4452010Y-7318375D03*
G01*
X3421989Y-7874000D03*
G01*
X4452010Y-7874000D03*
G01*
X3421989Y-8429625D03*
G01*
X4452010Y-8429625D03*
G01*
X3421989Y-8985250D03*
G01*
X4452010Y-8985250D03*
G01*
X3421989Y-9540875D03*
G01*
X4452010Y-9540875D03*
G01*
X3421989Y-471703D03*
G01*
X4452010Y-471703D03*
G01*
X3421989Y-1034135D03*
G01*
X4452010Y-1034135D03*
G01*
X3421989Y-1596567D03*
G01*
X4452010Y-1596567D03*
G01*
X3421989Y-2159000D03*
G01*
X4452010Y-2159000D03*
G01*
X3421989Y-2721432D03*
G01*
X4452010Y-2721432D03*
G01*
X3421989Y-3283864D03*
G01*
X4452010Y-3283864D03*
G01*
X3421989Y-3846296D03*
G01*
X4452010Y-3846296D03*
G01*
X3421989Y-4408703D03*
G01*
X4452010Y-4408703D03*
G36*
X5628954Y-8305927D02*
G01*
X5781354Y-8305927D01*
X5781354Y-8458327D01*
X5628954Y-8458327D01*
G37*
G01*
X5704890Y-8127872D03*
G01*
X5959093Y-8382025D03*
G01*
X5958890Y-8127872D03*
G01*
X6213093Y-8382025D03*
G01*
X6212890Y-8127872D03*
G01*
X6467093Y-8382025D03*
G01*
X6466890Y-8127872D03*
G01*
X6721093Y-8382025D03*
G01*
X6720890Y-8127872D03*
D15*
G01*
X2540000Y-4445000D03*
D16*
G01*
X1016000Y-4191000D03*
G01*
X1016000Y-3683000D03*
G01*
X1016000Y-3175000D03*
G01*
X1016000Y-2667000D03*
G01*
X1016000Y-2159000D03*
G01*
X1016000Y-1651000D03*
G01*
X1016000Y-1143000D03*
G01*
X2540000Y-889000D03*
G01*
X2540000Y-1397000D03*
G01*
X2540000Y-1905000D03*
G01*
X2540000Y-2413000D03*
G01*
X2540000Y-2921000D03*
G01*
X2540000Y-3429000D03*
G01*
X2540000Y-3937000D03*
G01*
X2540000Y-4191000D03*
G01*
X2540000Y-3683000D03*
G01*
X2540000Y-3175000D03*
G01*
X2540000Y-2667000D03*
G01*
X2540000Y-2159000D03*
G01*
X2540000Y-1651000D03*
G01*
X2540000Y-1143000D03*
G01*
X1016000Y-889000D03*
G01*
X1016000Y-1397000D03*
G01*
X1016000Y-1905000D03*
G01*
X1016000Y-2413000D03*
G01*
X1016000Y-2921000D03*
G01*
X1016000Y-3429000D03*
G01*
X1016000Y-3937000D03*
D15*
G01*
X1016000Y-4445000D03*
D16*
G01*
X6985000Y-1016000D03*
G01*
X6731000Y-1016000D03*
G01*
X6477000Y-1016000D03*
G01*
X6223000Y-1016000D03*
G01*
X5969000Y-1016000D03*
G01*
X5715000Y-1016000D03*
G01*
X5461000Y-1016000D03*
G01*
X5207000Y-1016000D03*
G01*
X5207000Y-1778000D03*
G01*
X5461000Y-1778000D03*
G01*
X5715000Y-1778000D03*
G01*
X5969000Y-1778000D03*
G01*
X6223000Y-1778000D03*
G01*
X6477000Y-1778000D03*
G01*
X6731000Y-1778000D03*
G01*
X6985000Y-1778000D03*
G36*
X1311998Y-5629998D02*
G01*
X1482001Y-5629998D01*
X1482001Y-5800001D01*
X1311998Y-5800001D01*
G37*
D17*
G01*
X1651000Y-5715000D03*
G01*
X1905000Y-5715000D03*
G01*
X2159000Y-5715000D03*
G36*
X5638952Y-4495927D02*
G01*
X5791352Y-4495927D01*
X5791352Y-4648327D01*
X5638952Y-4648327D01*
G37*
D14*
G01*
X5714898Y-4317872D03*
G01*
X5969101Y-4572025D03*
G01*
X5968898Y-4317872D03*
G01*
X6223101Y-4572025D03*
G01*
X6222898Y-4317872D03*
G01*
X6477101Y-4572025D03*
G01*
X6476898Y-4317872D03*
G01*
X6731101Y-4572025D03*
G01*
X6730898Y-4317872D03*
G01*
X1397000Y-5969000D03*
G01*
X1651000Y-5969000D03*
G01*
X1905000Y-5969000D03*
G01*
X2159000Y-5969000D03*
D18*
G01*
X6985000Y-2667000D03*
G01*
X5630925Y-2794000D03*
G01*
X6426657Y-2613126D03*
M02*
