G04 Layer: TopSilkscreenLayer*
G04 EasyEDA v6.5.9, 2022-07-24 08:21:13*
G04 5bc8cb45828b4c0bbea3d3a06f8b76a5,bf633cf64d8a430dba0ab8f24d4e683d,10*
G04 Gerber Generator version 0.2*
G04 Scale: 100 percent, Rotated: No, Reflected: No *
G04 Dimensions in millimeters *
G04 leading zeros omitted , absolute positions ,4 integer and 5 decimal *
%FSLAX45Y45*%
%MOMM*%

%ADD10C,0.2032*%
%ADD11C,0.1800*%
%ADD12C,0.1524*%
%ADD13C,0.2000*%
%ADD14C,0.1500*%
%ADD15C,0.2540*%
%ADD16C,0.3000*%
%ADD17C,0.2007*%
%ADD18C,0.1520*%
%ADD19C,0.0146*%

%LPD*%
G36*
X6124295Y-5331917D02*
G01*
X6110122Y-5332628D01*
X6100216Y-5333492D01*
X6093612Y-5334406D01*
X6075476Y-5338267D01*
X6051600Y-5344109D01*
X6040069Y-5347360D01*
X6028690Y-5350967D01*
X6017463Y-5354929D01*
X6006388Y-5359196D01*
X5995466Y-5363870D01*
X5984697Y-5368798D01*
X5974080Y-5374081D01*
X5963615Y-5379669D01*
X5953404Y-5385562D01*
X5943295Y-5391759D01*
X5933440Y-5398211D01*
X5923737Y-5405018D01*
X5914237Y-5412028D01*
X5900420Y-5423103D01*
X5891479Y-5430824D01*
X5882741Y-5438749D01*
X5874258Y-5446979D01*
X5866028Y-5455412D01*
X5858002Y-5464098D01*
X5850229Y-5472988D01*
X5842762Y-5482082D01*
X5835497Y-5491429D01*
X5828538Y-5500928D01*
X5821832Y-5510682D01*
X5815431Y-5520588D01*
X5809284Y-5530646D01*
X5803493Y-5540959D01*
X5797956Y-5551373D01*
X5792724Y-5561990D01*
X5787847Y-5572709D01*
X5783224Y-5583631D01*
X5778957Y-5594654D01*
X5775045Y-5605830D01*
X5771438Y-5617159D01*
X5768187Y-5628538D01*
X5765292Y-5640070D01*
X5762752Y-5651703D01*
X5760567Y-5663438D01*
X5758789Y-5675274D01*
X5757773Y-5684570D01*
X5757011Y-5695340D01*
X5756554Y-5707227D01*
X5756351Y-5719927D01*
X5756656Y-5746546D01*
X5757875Y-5772810D01*
X5759958Y-5796178D01*
X5761329Y-5805982D01*
X5762802Y-5814161D01*
X5765800Y-5826658D01*
X5769102Y-5838952D01*
X5772759Y-5851093D01*
X5776722Y-5863031D01*
X5781040Y-5874766D01*
X5785662Y-5886297D01*
X5790641Y-5897676D01*
X5795924Y-5908852D01*
X5801461Y-5919774D01*
X5810453Y-5935827D01*
X5816752Y-5946241D01*
X5823407Y-5956401D01*
X5830316Y-5966358D01*
X5837529Y-5976112D01*
X5845048Y-5985611D01*
X5852820Y-5994857D01*
X5860846Y-6003848D01*
X5869127Y-6012586D01*
X5877712Y-6021120D01*
X5886500Y-6029350D01*
X5895594Y-6037326D01*
X5904890Y-6044996D01*
X5914440Y-6052413D01*
X5924245Y-6059576D01*
X5934303Y-6066434D01*
X5944565Y-6072987D01*
X5955030Y-6079286D01*
X5965748Y-6085230D01*
X5976670Y-6090920D01*
X5987796Y-6096304D01*
X5999073Y-6101334D01*
X6010605Y-6106109D01*
X6022340Y-6110528D01*
X6034278Y-6114592D01*
X6046368Y-6118352D01*
X6058611Y-6121755D01*
X6071108Y-6124854D01*
X6082030Y-6127191D01*
X6092698Y-6128715D01*
X6104991Y-6129985D01*
X6118555Y-6130950D01*
X6132982Y-6131560D01*
X6148019Y-6131864D01*
X6163208Y-6131864D01*
X6178194Y-6131509D01*
X6192672Y-6130899D01*
X6206286Y-6129934D01*
X6218631Y-6128664D01*
X6229400Y-6127038D01*
X6240221Y-6124752D01*
X6252362Y-6121806D01*
X6264249Y-6118606D01*
X6275882Y-6115100D01*
X6287312Y-6111341D01*
X6298438Y-6107277D01*
X6309410Y-6102959D01*
X6320129Y-6098336D01*
X6330696Y-6093409D01*
X6341059Y-6088176D01*
X6351219Y-6082588D01*
X6361226Y-6076746D01*
X6371031Y-6070549D01*
X6380734Y-6064046D01*
X6390284Y-6057188D01*
X6399682Y-6050026D01*
X6408978Y-6042456D01*
X6418173Y-6034582D01*
X6427266Y-6026353D01*
X6436258Y-6017768D01*
X6445453Y-6008522D01*
X6454597Y-5998870D01*
X6463284Y-5989066D01*
X6471564Y-5979210D01*
X6479489Y-5969152D01*
X6486956Y-5959043D01*
X6494018Y-5948730D01*
X6500723Y-5938266D01*
X6507073Y-5927648D01*
X6513017Y-5916828D01*
X6518554Y-5905855D01*
X6523786Y-5894628D01*
X6528663Y-5883198D01*
X6533184Y-5871514D01*
X6537350Y-5859576D01*
X6541211Y-5847384D01*
X6544767Y-5834888D01*
X6547967Y-5822137D01*
X6550812Y-5809335D01*
X6552996Y-5797702D01*
X6554520Y-5786374D01*
X6555536Y-5774080D01*
X6556095Y-5759653D01*
X6556298Y-5722874D01*
X6555790Y-5695391D01*
X6555130Y-5684062D01*
X6554165Y-5673699D01*
X6552793Y-5663844D01*
X6550914Y-5653938D01*
X6548526Y-5643575D01*
X6541770Y-5619445D01*
X6537858Y-5606694D01*
X6534048Y-5595366D01*
X6529882Y-5584240D01*
X6525412Y-5573268D01*
X6520637Y-5562447D01*
X6515506Y-5551779D01*
X6507226Y-5536133D01*
X6501282Y-5525922D01*
X6495084Y-5515864D01*
X6488582Y-5506059D01*
X6481826Y-5496407D01*
X6474764Y-5486958D01*
X6467398Y-5477764D01*
X6459778Y-5468772D01*
X6451904Y-5459984D01*
X6443776Y-5451449D01*
X6435394Y-5443118D01*
X6426758Y-5435041D01*
X6417919Y-5427268D01*
X6408775Y-5419699D01*
X6399479Y-5412384D01*
X6389928Y-5405374D01*
X6380175Y-5398617D01*
X6370167Y-5392115D01*
X6360007Y-5385917D01*
X6344361Y-5377180D01*
X6333744Y-5371744D01*
X6322872Y-5366613D01*
X6311900Y-5361787D01*
X6300673Y-5357266D01*
X6289344Y-5353100D01*
X6277254Y-5349087D01*
X6263843Y-5345176D01*
X6249974Y-5341620D01*
X6236157Y-5338470D01*
X6222847Y-5335879D01*
X6210554Y-5333949D01*
X6199835Y-5332730D01*
X6191148Y-5332323D01*
X6177178Y-5333390D01*
X6003086Y-5680354D01*
X5933490Y-5820105D01*
X5912561Y-5862675D01*
X5899708Y-5889345D01*
X5896102Y-5897422D01*
X5909868Y-5897829D01*
X5947257Y-5898083D01*
X6075476Y-5898184D01*
X6417513Y-5897270D01*
X6394856Y-5851448D01*
X6340754Y-5743854D01*
X6236970Y-5538876D01*
X6224270Y-5514848D01*
X6122060Y-5718759D01*
X6095796Y-5771692D01*
X6079896Y-5804357D01*
X6076848Y-5811215D01*
X6078829Y-5812434D01*
X6084620Y-5813348D01*
X6093663Y-5813958D01*
X6105398Y-5814161D01*
X6134150Y-5814161D01*
X6192012Y-5695848D01*
X6210706Y-5658459D01*
X6220815Y-5638850D01*
X6223762Y-5633516D01*
X6225032Y-5631637D01*
X6228334Y-5637225D01*
X6248654Y-5676138D01*
X6280912Y-5739993D01*
X6335115Y-5848350D01*
X5975705Y-5847994D01*
X6050686Y-5700928D01*
X6176416Y-5452821D01*
X6199378Y-5407964D01*
X6210147Y-5387492D01*
X6211316Y-5387035D01*
X6213551Y-5386984D01*
X6220815Y-5387949D01*
X6230975Y-5390083D01*
X6243167Y-5393182D01*
X6256477Y-5396992D01*
X6269939Y-5401259D01*
X6282740Y-5405729D01*
X6293866Y-5410149D01*
X6304991Y-5415229D01*
X6315964Y-5420715D01*
X6326784Y-5426557D01*
X6337350Y-5432856D01*
X6347764Y-5439511D01*
X6357924Y-5446572D01*
X6367881Y-5453938D01*
X6377584Y-5461660D01*
X6386982Y-5469737D01*
X6396126Y-5478119D01*
X6405016Y-5486806D01*
X6413550Y-5495798D01*
X6421831Y-5505043D01*
X6429756Y-5514594D01*
X6437325Y-5524398D01*
X6444538Y-5534406D01*
X6451447Y-5544667D01*
X6457899Y-5555183D01*
X6463995Y-5565851D01*
X6469684Y-5576722D01*
X6475120Y-5588152D01*
X6480149Y-5599734D01*
X6484721Y-5611469D01*
X6488887Y-5623255D01*
X6492595Y-5635193D01*
X6495846Y-5647232D01*
X6498691Y-5659374D01*
X6501079Y-5671566D01*
X6503009Y-5683808D01*
X6504533Y-5696153D01*
X6505549Y-5708548D01*
X6506159Y-5720943D01*
X6506362Y-5733338D01*
X6506057Y-5745784D01*
X6505346Y-5758230D01*
X6504127Y-5770676D01*
X6502501Y-5783072D01*
X6500418Y-5795467D01*
X6497878Y-5807811D01*
X6494881Y-5820105D01*
X6491528Y-5832094D01*
X6487718Y-5843879D01*
X6483553Y-5855462D01*
X6479032Y-5866841D01*
X6474104Y-5878017D01*
X6468821Y-5888939D01*
X6463233Y-5899607D01*
X6457238Y-5910072D01*
X6450939Y-5920282D01*
X6444284Y-5930239D01*
X6437325Y-5939942D01*
X6430010Y-5949391D01*
X6422440Y-5958586D01*
X6414566Y-5967476D01*
X6406388Y-5976061D01*
X6397955Y-5984392D01*
X6389217Y-5992418D01*
X6380276Y-6000140D01*
X6371031Y-6007557D01*
X6361531Y-6014669D01*
X6351828Y-6021425D01*
X6341872Y-6027877D01*
X6331712Y-6033973D01*
X6316065Y-6042507D01*
X6305346Y-6047740D01*
X6294475Y-6052616D01*
X6283452Y-6057138D01*
X6272225Y-6061252D01*
X6260795Y-6065062D01*
X6249263Y-6068415D01*
X6237528Y-6071412D01*
X6225692Y-6074003D01*
X6213703Y-6076188D01*
X6201613Y-6077966D01*
X6189370Y-6079337D01*
X6177076Y-6080302D01*
X6164630Y-6080810D01*
X6151016Y-6080912D01*
X6136640Y-6080506D01*
X6122720Y-6079693D01*
X6109208Y-6078321D01*
X6096000Y-6076492D01*
X6083096Y-6074156D01*
X6070346Y-6071260D01*
X6057798Y-6067856D01*
X6045301Y-6063843D01*
X6032855Y-6059271D01*
X6020358Y-6054140D01*
X6007760Y-6048400D01*
X5994400Y-6041694D01*
X5981446Y-6034786D01*
X5969609Y-6027877D01*
X5958687Y-6020765D01*
X5948273Y-6013297D01*
X5938113Y-6005169D01*
X5927852Y-5996178D01*
X5917234Y-5986119D01*
X5907024Y-5975959D01*
X5898337Y-5966815D01*
X5890361Y-5957925D01*
X5882944Y-5949188D01*
X5876086Y-5940501D01*
X5869635Y-5931712D01*
X5863590Y-5922721D01*
X5857798Y-5913424D01*
X5852210Y-5903671D01*
X5846724Y-5893409D01*
X5841288Y-5882589D01*
X5836259Y-5871565D01*
X5831636Y-5860491D01*
X5827420Y-5849366D01*
X5823610Y-5838190D01*
X5820156Y-5826963D01*
X5817158Y-5815685D01*
X5814517Y-5804408D01*
X5812282Y-5793079D01*
X5810453Y-5781751D01*
X5808980Y-5770422D01*
X5807913Y-5759043D01*
X5807202Y-5747766D01*
X5806846Y-5736437D01*
X5806897Y-5725160D01*
X5807303Y-5713933D01*
X5808065Y-5702757D01*
X5809183Y-5691581D01*
X5810656Y-5680506D01*
X5812485Y-5669534D01*
X5814618Y-5658612D01*
X5817158Y-5647791D01*
X5820003Y-5637022D01*
X5823153Y-5626404D01*
X5826658Y-5615889D01*
X5830519Y-5605475D01*
X5834684Y-5595213D01*
X5839155Y-5585053D01*
X5843981Y-5575046D01*
X5849061Y-5565241D01*
X5854496Y-5555538D01*
X5860237Y-5546039D01*
X5866282Y-5536742D01*
X5872581Y-5527598D01*
X5882640Y-5514289D01*
X5889701Y-5505653D01*
X5897016Y-5497220D01*
X5904636Y-5489041D01*
X5912561Y-5481116D01*
X5920740Y-5473395D01*
X5929172Y-5465927D01*
X5937859Y-5458764D01*
X5946851Y-5451805D01*
X5956096Y-5445150D01*
X5965545Y-5438800D01*
X5975299Y-5432704D01*
X5985306Y-5426964D01*
X5995517Y-5421477D01*
X6005982Y-5416346D01*
X6016701Y-5411520D01*
X6027674Y-5406999D01*
X6038799Y-5402884D01*
X6050229Y-5399074D01*
X6061862Y-5395620D01*
X6093663Y-5386679D01*
X6096152Y-5384139D01*
X6100216Y-5378043D01*
X6105245Y-5369255D01*
X6110782Y-5358739D01*
G37*
D10*
X1155700Y-5372862D02*
G01*
X1192021Y-5468365D01*
X1228344Y-5372862D02*
G01*
X1192021Y-5468365D01*
X1312926Y-5418328D02*
G01*
X1303781Y-5409184D01*
X1294892Y-5404612D01*
X1281176Y-5404612D01*
X1272031Y-5409184D01*
X1262887Y-5418328D01*
X1258315Y-5431789D01*
X1258315Y-5440934D01*
X1262887Y-5454650D01*
X1272031Y-5463794D01*
X1281176Y-5468365D01*
X1294892Y-5468365D01*
X1303781Y-5463794D01*
X1312926Y-5454650D01*
X1397507Y-5418328D02*
G01*
X1388363Y-5409184D01*
X1379220Y-5404612D01*
X1365757Y-5404612D01*
X1356613Y-5409184D01*
X1347470Y-5418328D01*
X1342897Y-5431789D01*
X1342897Y-5440934D01*
X1347470Y-5454650D01*
X1356613Y-5463794D01*
X1365757Y-5468365D01*
X1379220Y-5468365D01*
X1388363Y-5463794D01*
X1397507Y-5454650D01*
X1565655Y-5395468D02*
G01*
X1561084Y-5386323D01*
X1551939Y-5377434D01*
X1543050Y-5372862D01*
X1524762Y-5372862D01*
X1515618Y-5377434D01*
X1506728Y-5386323D01*
X1502155Y-5395468D01*
X1497584Y-5409184D01*
X1497584Y-5431789D01*
X1502155Y-5445505D01*
X1506728Y-5454650D01*
X1515618Y-5463794D01*
X1524762Y-5468365D01*
X1543050Y-5468365D01*
X1551939Y-5463794D01*
X1561084Y-5454650D01*
X1565655Y-5445505D01*
X1565655Y-5431789D01*
X1543050Y-5431789D02*
G01*
X1565655Y-5431789D01*
X1595628Y-5372862D02*
G01*
X1595628Y-5468365D01*
X1595628Y-5372862D02*
G01*
X1659381Y-5468365D01*
X1659381Y-5372862D02*
G01*
X1659381Y-5468365D01*
X1689354Y-5372862D02*
G01*
X1689354Y-5468365D01*
X1689354Y-5372862D02*
G01*
X1721104Y-5372862D01*
X1734820Y-5377434D01*
X1743963Y-5386323D01*
X1748536Y-5395468D01*
X1752854Y-5409184D01*
X1752854Y-5431789D01*
X1748536Y-5445505D01*
X1743963Y-5454650D01*
X1734820Y-5463794D01*
X1721104Y-5468365D01*
X1689354Y-5468365D01*
X1916684Y-5386323D02*
G01*
X1907539Y-5377434D01*
X1893823Y-5372862D01*
X1875789Y-5372862D01*
X1862073Y-5377434D01*
X1852929Y-5386323D01*
X1852929Y-5395468D01*
X1857502Y-5404612D01*
X1862073Y-5409184D01*
X1871218Y-5413755D01*
X1898395Y-5422900D01*
X1907539Y-5427218D01*
X1912112Y-5431789D01*
X1916684Y-5440934D01*
X1916684Y-5454650D01*
X1907539Y-5463794D01*
X1893823Y-5468365D01*
X1875789Y-5468365D01*
X1862073Y-5463794D01*
X1852929Y-5454650D01*
X2014727Y-5395468D02*
G01*
X2010156Y-5386323D01*
X2001265Y-5377434D01*
X1992122Y-5372862D01*
X1973834Y-5372862D01*
X1964690Y-5377434D01*
X1955800Y-5386323D01*
X1951227Y-5395468D01*
X1946656Y-5409184D01*
X1946656Y-5431789D01*
X1951227Y-5445505D01*
X1955800Y-5454650D01*
X1964690Y-5463794D01*
X1973834Y-5468365D01*
X1992122Y-5468365D01*
X2001265Y-5463794D01*
X2010156Y-5454650D01*
X2014727Y-5445505D01*
X2044700Y-5372862D02*
G01*
X2044700Y-5468365D01*
X2044700Y-5468365D02*
G01*
X2099309Y-5468365D01*
X2262886Y-5386323D02*
G01*
X2253995Y-5377434D01*
X2240279Y-5372862D01*
X2221991Y-5372862D01*
X2208529Y-5377434D01*
X2199386Y-5386323D01*
X2199386Y-5395468D01*
X2203958Y-5404612D01*
X2208529Y-5409184D01*
X2217420Y-5413755D01*
X2244852Y-5422900D01*
X2253995Y-5427218D01*
X2258313Y-5431789D01*
X2262886Y-5440934D01*
X2262886Y-5454650D01*
X2253995Y-5463794D01*
X2240279Y-5468365D01*
X2221991Y-5468365D01*
X2208529Y-5463794D01*
X2199386Y-5454650D01*
X2292858Y-5372862D02*
G01*
X2292858Y-5468365D01*
X2292858Y-5372862D02*
G01*
X2324861Y-5372862D01*
X2338324Y-5377434D01*
X2347468Y-5386323D01*
X2352040Y-5395468D01*
X2356611Y-5409184D01*
X2356611Y-5431789D01*
X2352040Y-5445505D01*
X2347468Y-5454650D01*
X2338324Y-5463794D01*
X2324861Y-5468365D01*
X2292858Y-5468365D01*
X2422906Y-5372862D02*
G01*
X2386584Y-5468365D01*
X2422906Y-5372862D02*
G01*
X2459227Y-5468365D01*
X2400300Y-5436362D02*
G01*
X2445765Y-5436362D01*
D11*
X1677055Y-2621539D02*
G01*
X1749701Y-2621539D01*
X1763410Y-2626113D01*
X1767989Y-2630683D01*
X1772556Y-2639829D01*
X1772556Y-2648717D01*
X1767989Y-2657863D01*
X1763410Y-2662433D01*
X1749701Y-2667005D01*
X1740806Y-2667005D01*
X1677055Y-2591567D02*
G01*
X1772556Y-2591567D01*
X1772556Y-2591567D02*
G01*
X1772556Y-2536957D01*
X1699910Y-2438913D02*
G01*
X1690771Y-2443485D01*
X1681624Y-2452377D01*
X1677055Y-2461519D01*
X1677055Y-2479807D01*
X1681624Y-2488951D01*
X1690771Y-2497843D01*
X1699910Y-2502413D01*
X1713374Y-2506985D01*
X1736239Y-2506985D01*
X1749701Y-2502413D01*
X1758840Y-2497843D01*
X1767989Y-2488951D01*
X1772556Y-2479807D01*
X1772556Y-2461519D01*
X1767989Y-2452377D01*
X1758840Y-2443485D01*
X1749701Y-2438913D01*
X1677055Y-2363477D02*
G01*
X1749701Y-2363477D01*
X1763410Y-2368047D01*
X1767989Y-2372365D01*
X1772556Y-2381511D01*
X1772556Y-2390653D01*
X1767989Y-2399797D01*
X1763410Y-2404369D01*
X1749701Y-2408943D01*
X1740806Y-2408943D01*
X1677055Y-2333503D02*
G01*
X1772556Y-2333503D01*
X1772556Y-2333503D02*
G01*
X1772556Y-2278895D01*
X1699910Y-2180597D02*
G01*
X1690771Y-2185167D01*
X1681624Y-2194313D01*
X1677055Y-2203455D01*
X1677055Y-2221489D01*
X1681624Y-2230633D01*
X1690771Y-2239779D01*
X1699910Y-2244349D01*
X1713374Y-2248921D01*
X1736239Y-2248921D01*
X1749701Y-2244349D01*
X1758840Y-2239779D01*
X1767989Y-2230633D01*
X1772556Y-2221489D01*
X1772556Y-2203455D01*
X1767989Y-2194313D01*
X1758840Y-2185167D01*
X1749701Y-2180597D01*
X1677055Y-2105157D02*
G01*
X1749701Y-2105157D01*
X1763410Y-2109731D01*
X1767989Y-2114301D01*
X1772556Y-2123447D01*
X1772556Y-2132589D01*
X1767989Y-2141481D01*
X1763410Y-2146051D01*
X1749701Y-2150623D01*
X1740806Y-2150623D01*
X1677055Y-2075185D02*
G01*
X1772556Y-2075185D01*
X1772556Y-2075185D02*
G01*
X1772556Y-2020577D01*
X1699910Y-1922531D02*
G01*
X1690771Y-1927103D01*
X1681624Y-1935995D01*
X1677055Y-1945137D01*
X1677055Y-1963427D01*
X1681624Y-1972569D01*
X1690771Y-1981461D01*
X1699910Y-1986031D01*
X1713374Y-1990603D01*
X1736239Y-1990603D01*
X1749701Y-1986031D01*
X1758840Y-1981461D01*
X1767989Y-1972569D01*
X1772556Y-1963427D01*
X1772556Y-1945137D01*
X1767989Y-1935995D01*
X1758840Y-1927103D01*
X1749701Y-1922531D01*
X1677055Y-1847095D02*
G01*
X1749701Y-1847095D01*
X1763410Y-1851665D01*
X1767989Y-1855983D01*
X1772556Y-1865129D01*
X1772556Y-1874271D01*
X1767989Y-1883415D01*
X1763410Y-1887987D01*
X1749701Y-1892561D01*
X1740806Y-1892561D01*
X1677055Y-1817121D02*
G01*
X1772556Y-1817121D01*
X1772556Y-1817121D02*
G01*
X1772556Y-1762513D01*
X1699910Y-1664213D02*
G01*
X1690771Y-1668785D01*
X1681624Y-1677931D01*
X1677055Y-1687073D01*
X1677055Y-1705107D01*
X1681624Y-1714251D01*
X1690771Y-1723397D01*
X1699910Y-1727967D01*
X1713374Y-1732539D01*
X1736239Y-1732539D01*
X1749701Y-1727967D01*
X1758840Y-1723397D01*
X1767989Y-1714251D01*
X1772556Y-1705107D01*
X1772556Y-1687073D01*
X1767989Y-1677931D01*
X1758840Y-1668785D01*
X1749701Y-1664213D01*
D12*
X5207000Y-2297684D02*
G01*
X5207000Y-2406650D01*
X5207000Y-2297684D02*
G01*
X5253736Y-2297684D01*
X5269229Y-2302763D01*
X5274563Y-2308097D01*
X5279643Y-2318512D01*
X5279643Y-2328926D01*
X5274563Y-2339339D01*
X5269229Y-2344420D01*
X5253736Y-2349500D01*
X5207000Y-2349500D01*
X5243322Y-2349500D02*
G01*
X5279643Y-2406650D01*
X5313934Y-2297684D02*
G01*
X5313934Y-2406650D01*
X5313934Y-2297684D02*
G01*
X5381497Y-2297684D01*
X5313934Y-2349500D02*
G01*
X5355590Y-2349500D01*
X5313934Y-2406650D02*
G01*
X5381497Y-2406650D01*
X5415788Y-2297684D02*
G01*
X5415788Y-2406650D01*
X5415788Y-2297684D02*
G01*
X5452109Y-2297684D01*
X5467858Y-2302763D01*
X5478272Y-2313178D01*
X5483352Y-2323592D01*
X5488686Y-2339339D01*
X5488686Y-2365247D01*
X5483352Y-2380742D01*
X5478272Y-2391155D01*
X5467858Y-2401570D01*
X5452109Y-2406650D01*
X5415788Y-2406650D01*
D13*
X7057643Y-3735070D02*
G01*
X6985000Y-3926078D01*
X7057643Y-3735070D02*
G01*
X7130541Y-3926078D01*
X7012177Y-3862578D02*
G01*
X7103109Y-3862578D01*
X6985000Y-7545070D02*
G01*
X6985000Y-7736078D01*
X6985000Y-7545070D02*
G01*
X7066788Y-7545070D01*
X7093965Y-7554213D01*
X7103109Y-7563358D01*
X7112254Y-7581645D01*
X7112254Y-7599679D01*
X7103109Y-7617968D01*
X7093965Y-7627112D01*
X7066788Y-7636002D01*
X6985000Y-7636002D02*
G01*
X7066788Y-7636002D01*
X7093965Y-7645145D01*
X7103109Y-7654289D01*
X7112254Y-7672578D01*
X7112254Y-7699755D01*
X7103109Y-7717789D01*
X7093965Y-7726934D01*
X7066788Y-7736078D01*
X6985000Y-7736078D01*
D12*
X7403591Y-1395221D02*
G01*
X7393177Y-1400555D01*
X7382763Y-1410970D01*
X7377684Y-1421129D01*
X7377684Y-1441957D01*
X7382763Y-1452371D01*
X7393177Y-1462786D01*
X7403591Y-1468120D01*
X7419340Y-1473200D01*
X7445247Y-1473200D01*
X7460741Y-1468120D01*
X7471156Y-1462786D01*
X7481570Y-1452371D01*
X7486650Y-1441957D01*
X7486650Y-1421129D01*
X7481570Y-1410970D01*
X7471156Y-1400555D01*
X7460741Y-1395221D01*
X7398511Y-1360931D02*
G01*
X7393177Y-1350518D01*
X7377684Y-1335023D01*
X7486650Y-1335023D01*
X6224777Y-6679692D02*
G01*
X6219443Y-6669278D01*
X6209029Y-6658863D01*
X6198870Y-6653784D01*
X6178041Y-6653784D01*
X6167627Y-6658863D01*
X6157213Y-6669278D01*
X6151879Y-6679692D01*
X6146800Y-6695439D01*
X6146800Y-6721347D01*
X6151879Y-6736842D01*
X6157213Y-6747255D01*
X6167627Y-6757670D01*
X6178041Y-6762750D01*
X6198870Y-6762750D01*
X6209029Y-6757670D01*
X6219443Y-6747255D01*
X6224777Y-6736842D01*
X6259068Y-6653784D02*
G01*
X6259068Y-6762750D01*
X6259068Y-6653784D02*
G01*
X6331711Y-6762750D01*
X6331711Y-6653784D02*
G01*
X6331711Y-6762750D01*
X6366002Y-6674612D02*
G01*
X6376415Y-6669278D01*
X6391909Y-6653784D01*
X6391909Y-6762750D01*
X6173977Y-2704592D02*
G01*
X6168643Y-2694178D01*
X6158229Y-2683763D01*
X6148070Y-2678684D01*
X6127241Y-2678684D01*
X6116827Y-2683763D01*
X6106413Y-2694178D01*
X6101079Y-2704592D01*
X6096000Y-2720339D01*
X6096000Y-2746247D01*
X6101079Y-2761742D01*
X6106413Y-2772155D01*
X6116827Y-2782570D01*
X6127241Y-2787650D01*
X6148070Y-2787650D01*
X6158229Y-2782570D01*
X6168643Y-2772155D01*
X6173977Y-2761742D01*
X6208268Y-2678684D02*
G01*
X6208268Y-2787650D01*
X6208268Y-2678684D02*
G01*
X6280911Y-2787650D01*
X6280911Y-2678684D02*
G01*
X6280911Y-2787650D01*
X6320536Y-2704592D02*
G01*
X6320536Y-2699512D01*
X6325615Y-2689097D01*
X6330950Y-2683763D01*
X6341109Y-2678684D01*
X6361938Y-2678684D01*
X6372352Y-2683763D01*
X6377686Y-2689097D01*
X6382765Y-2699512D01*
X6382765Y-2709926D01*
X6377686Y-2720339D01*
X6367272Y-2735834D01*
X6315202Y-2787650D01*
X6388100Y-2787650D01*
X4013200Y-5002784D02*
G01*
X4013200Y-5111750D01*
X4013200Y-5002784D02*
G01*
X4059936Y-5002784D01*
X4075429Y-5007863D01*
X4080763Y-5013197D01*
X4085843Y-5023612D01*
X4085843Y-5034026D01*
X4080763Y-5044439D01*
X4075429Y-5049520D01*
X4059936Y-5054600D01*
X4013200Y-5054600D01*
X4049522Y-5054600D02*
G01*
X4085843Y-5111750D01*
X4120134Y-5023612D02*
G01*
X4130547Y-5018278D01*
X4146295Y-5002784D01*
X4146295Y-5111750D01*
X3949700Y-5586984D02*
G01*
X3949700Y-5695950D01*
X3949700Y-5586984D02*
G01*
X3996436Y-5586984D01*
X4011929Y-5592063D01*
X4017263Y-5597397D01*
X4022343Y-5607812D01*
X4022343Y-5618226D01*
X4017263Y-5628639D01*
X4011929Y-5633720D01*
X3996436Y-5638800D01*
X3949700Y-5638800D01*
X3986022Y-5638800D02*
G01*
X4022343Y-5695950D01*
X4061968Y-5612892D02*
G01*
X4061968Y-5607812D01*
X4067047Y-5597397D01*
X4072381Y-5592063D01*
X4082795Y-5586984D01*
X4103370Y-5586984D01*
X4113784Y-5592063D01*
X4119118Y-5597397D01*
X4124197Y-5607812D01*
X4124197Y-5618226D01*
X4119118Y-5628639D01*
X4108704Y-5644134D01*
X4056634Y-5695950D01*
X4129531Y-5695950D01*
X3924300Y-6171184D02*
G01*
X3924300Y-6280150D01*
X3924300Y-6171184D02*
G01*
X3971036Y-6171184D01*
X3986529Y-6176263D01*
X3991863Y-6181597D01*
X3996943Y-6192012D01*
X3996943Y-6202426D01*
X3991863Y-6212839D01*
X3986529Y-6217920D01*
X3971036Y-6223000D01*
X3924300Y-6223000D01*
X3960622Y-6223000D02*
G01*
X3996943Y-6280150D01*
X4041647Y-6171184D02*
G01*
X4098797Y-6171184D01*
X4067809Y-6212839D01*
X4083304Y-6212839D01*
X4093718Y-6217920D01*
X4098797Y-6223000D01*
X4104131Y-6238747D01*
X4104131Y-6249162D01*
X4098797Y-6264655D01*
X4088384Y-6275070D01*
X4072890Y-6280150D01*
X4057395Y-6280150D01*
X4041647Y-6275070D01*
X4036568Y-6269989D01*
X4031234Y-6259576D01*
X3937000Y-6666484D02*
G01*
X3937000Y-6775450D01*
X3937000Y-6666484D02*
G01*
X3983736Y-6666484D01*
X3999229Y-6671563D01*
X4004563Y-6676897D01*
X4009643Y-6687312D01*
X4009643Y-6697726D01*
X4004563Y-6708139D01*
X3999229Y-6713220D01*
X3983736Y-6718300D01*
X3937000Y-6718300D01*
X3973322Y-6718300D02*
G01*
X4009643Y-6775450D01*
X4096004Y-6666484D02*
G01*
X4043934Y-6739128D01*
X4121911Y-6739128D01*
X4096004Y-6666484D02*
G01*
X4096004Y-6775450D01*
X3949700Y-7263384D02*
G01*
X3949700Y-7372350D01*
X3949700Y-7263384D02*
G01*
X3996436Y-7263384D01*
X4011929Y-7268463D01*
X4017263Y-7273797D01*
X4022343Y-7284212D01*
X4022343Y-7294626D01*
X4017263Y-7305039D01*
X4011929Y-7310120D01*
X3996436Y-7315200D01*
X3949700Y-7315200D01*
X3986022Y-7315200D02*
G01*
X4022343Y-7372350D01*
X4119118Y-7263384D02*
G01*
X4067047Y-7263384D01*
X4061968Y-7310120D01*
X4067047Y-7305039D01*
X4082795Y-7299705D01*
X4098290Y-7299705D01*
X4113784Y-7305039D01*
X4124197Y-7315200D01*
X4129531Y-7330947D01*
X4129531Y-7341362D01*
X4124197Y-7356855D01*
X4113784Y-7367270D01*
X4098290Y-7372350D01*
X4082795Y-7372350D01*
X4067047Y-7367270D01*
X4061968Y-7362189D01*
X4056634Y-7351776D01*
X3937000Y-7771384D02*
G01*
X3937000Y-7880350D01*
X3937000Y-7771384D02*
G01*
X3983736Y-7771384D01*
X3999229Y-7776463D01*
X4004563Y-7781797D01*
X4009643Y-7792212D01*
X4009643Y-7802626D01*
X4004563Y-7813039D01*
X3999229Y-7818120D01*
X3983736Y-7823200D01*
X3937000Y-7823200D01*
X3973322Y-7823200D02*
G01*
X4009643Y-7880350D01*
X4106418Y-7786878D02*
G01*
X4101084Y-7776463D01*
X4085590Y-7771384D01*
X4075175Y-7771384D01*
X4059681Y-7776463D01*
X4049268Y-7792212D01*
X4043934Y-7818120D01*
X4043934Y-7844028D01*
X4049268Y-7864855D01*
X4059681Y-7875270D01*
X4075175Y-7880350D01*
X4080509Y-7880350D01*
X4096004Y-7875270D01*
X4106418Y-7864855D01*
X4111497Y-7849362D01*
X4111497Y-7844028D01*
X4106418Y-7828534D01*
X4096004Y-7818120D01*
X4080509Y-7813039D01*
X4075175Y-7813039D01*
X4059681Y-7818120D01*
X4049268Y-7828534D01*
X4043934Y-7844028D01*
X3937000Y-8368284D02*
G01*
X3937000Y-8477250D01*
X3937000Y-8368284D02*
G01*
X3983736Y-8368284D01*
X3999229Y-8373363D01*
X4004563Y-8378697D01*
X4009643Y-8389112D01*
X4009643Y-8399526D01*
X4004563Y-8409939D01*
X3999229Y-8415020D01*
X3983736Y-8420100D01*
X3937000Y-8420100D01*
X3973322Y-8420100D02*
G01*
X4009643Y-8477250D01*
X4116831Y-8368284D02*
G01*
X4064761Y-8477250D01*
X4043934Y-8368284D02*
G01*
X4116831Y-8368284D01*
X3949700Y-8914384D02*
G01*
X3949700Y-9023350D01*
X3949700Y-8914384D02*
G01*
X3996436Y-8914384D01*
X4011929Y-8919463D01*
X4017263Y-8924797D01*
X4022343Y-8935212D01*
X4022343Y-8945626D01*
X4017263Y-8956039D01*
X4011929Y-8961120D01*
X3996436Y-8966200D01*
X3949700Y-8966200D01*
X3986022Y-8966200D02*
G01*
X4022343Y-9023350D01*
X4082795Y-8914384D02*
G01*
X4067047Y-8919463D01*
X4061968Y-8929878D01*
X4061968Y-8940292D01*
X4067047Y-8950705D01*
X4077461Y-8956039D01*
X4098290Y-8961120D01*
X4113784Y-8966200D01*
X4124197Y-8976613D01*
X4129531Y-8987028D01*
X4129531Y-9002776D01*
X4124197Y-9013189D01*
X4119118Y-9018270D01*
X4103370Y-9023350D01*
X4082795Y-9023350D01*
X4067047Y-9018270D01*
X4061968Y-9013189D01*
X4056634Y-9002776D01*
X4056634Y-8987028D01*
X4061968Y-8976613D01*
X4072381Y-8966200D01*
X4087875Y-8961120D01*
X4108704Y-8956039D01*
X4119118Y-8950705D01*
X4124197Y-8940292D01*
X4124197Y-8929878D01*
X4119118Y-8919463D01*
X4103370Y-8914384D01*
X4082795Y-8914384D01*
X3924300Y-9485884D02*
G01*
X3924300Y-9594850D01*
X3924300Y-9485884D02*
G01*
X3971036Y-9485884D01*
X3986529Y-9490963D01*
X3991863Y-9496297D01*
X3996943Y-9506712D01*
X3996943Y-9517126D01*
X3991863Y-9527539D01*
X3986529Y-9532620D01*
X3971036Y-9537700D01*
X3924300Y-9537700D01*
X3960622Y-9537700D02*
G01*
X3996943Y-9594850D01*
X4098797Y-9522205D02*
G01*
X4093718Y-9537700D01*
X4083304Y-9548113D01*
X4067809Y-9553447D01*
X4062475Y-9553447D01*
X4046981Y-9548113D01*
X4036568Y-9537700D01*
X4031234Y-9522205D01*
X4031234Y-9517126D01*
X4036568Y-9501378D01*
X4046981Y-9490963D01*
X4062475Y-9485884D01*
X4067809Y-9485884D01*
X4083304Y-9490963D01*
X4093718Y-9501378D01*
X4098797Y-9522205D01*
X4098797Y-9548113D01*
X4093718Y-9574276D01*
X4083304Y-9589770D01*
X4067809Y-9594850D01*
X4057395Y-9594850D01*
X4041647Y-9589770D01*
X4036568Y-9579355D01*
X3822700Y-443484D02*
G01*
X3822700Y-552450D01*
X3822700Y-443484D02*
G01*
X3869436Y-443484D01*
X3884929Y-448563D01*
X3890263Y-453897D01*
X3895343Y-464312D01*
X3895343Y-474726D01*
X3890263Y-485139D01*
X3884929Y-490220D01*
X3869436Y-495300D01*
X3822700Y-495300D01*
X3859022Y-495300D02*
G01*
X3895343Y-552450D01*
X3929634Y-464312D02*
G01*
X3940047Y-458978D01*
X3955795Y-443484D01*
X3955795Y-552450D01*
X4021074Y-443484D02*
G01*
X4005579Y-448563D01*
X3995165Y-464312D01*
X3990086Y-490220D01*
X3990086Y-505713D01*
X3995165Y-531876D01*
X4005579Y-547370D01*
X4021074Y-552450D01*
X4031488Y-552450D01*
X4047236Y-547370D01*
X4057650Y-531876D01*
X4062729Y-505713D01*
X4062729Y-490220D01*
X4057650Y-464312D01*
X4047236Y-448563D01*
X4031488Y-443484D01*
X4021074Y-443484D01*
X3860800Y-976884D02*
G01*
X3860800Y-1085850D01*
X3860800Y-976884D02*
G01*
X3907536Y-976884D01*
X3923029Y-981963D01*
X3928363Y-987297D01*
X3933443Y-997712D01*
X3933443Y-1008126D01*
X3928363Y-1018539D01*
X3923029Y-1023620D01*
X3907536Y-1028700D01*
X3860800Y-1028700D01*
X3897122Y-1028700D02*
G01*
X3933443Y-1085850D01*
X3967734Y-997712D02*
G01*
X3978147Y-992378D01*
X3993895Y-976884D01*
X3993895Y-1085850D01*
X4028186Y-997712D02*
G01*
X4038600Y-992378D01*
X4054093Y-976884D01*
X4054093Y-1085850D01*
X3848100Y-1548384D02*
G01*
X3848100Y-1657350D01*
X3848100Y-1548384D02*
G01*
X3894836Y-1548384D01*
X3910329Y-1553463D01*
X3915663Y-1558797D01*
X3920743Y-1569212D01*
X3920743Y-1579626D01*
X3915663Y-1590039D01*
X3910329Y-1595120D01*
X3894836Y-1600200D01*
X3848100Y-1600200D01*
X3884422Y-1600200D02*
G01*
X3920743Y-1657350D01*
X3955034Y-1569212D02*
G01*
X3965447Y-1563878D01*
X3981195Y-1548384D01*
X3981195Y-1657350D01*
X4020565Y-1574292D02*
G01*
X4020565Y-1569212D01*
X4025900Y-1558797D01*
X4030979Y-1553463D01*
X4041393Y-1548384D01*
X4062222Y-1548384D01*
X4072636Y-1553463D01*
X4077715Y-1558797D01*
X4083050Y-1569212D01*
X4083050Y-1579626D01*
X4077715Y-1590039D01*
X4067302Y-1605534D01*
X4015486Y-1657350D01*
X4088129Y-1657350D01*
X3848100Y-2119884D02*
G01*
X3848100Y-2228850D01*
X3848100Y-2119884D02*
G01*
X3894836Y-2119884D01*
X3910329Y-2124963D01*
X3915663Y-2130297D01*
X3920743Y-2140712D01*
X3920743Y-2151126D01*
X3915663Y-2161539D01*
X3910329Y-2166620D01*
X3894836Y-2171700D01*
X3848100Y-2171700D01*
X3884422Y-2171700D02*
G01*
X3920743Y-2228850D01*
X3955034Y-2140712D02*
G01*
X3965447Y-2135378D01*
X3981195Y-2119884D01*
X3981195Y-2228850D01*
X4025900Y-2119884D02*
G01*
X4083050Y-2119884D01*
X4051808Y-2161539D01*
X4067302Y-2161539D01*
X4077715Y-2166620D01*
X4083050Y-2171700D01*
X4088129Y-2187447D01*
X4088129Y-2197862D01*
X4083050Y-2213355D01*
X4072636Y-2223770D01*
X4056888Y-2228850D01*
X4041393Y-2228850D01*
X4025900Y-2223770D01*
X4020565Y-2218689D01*
X4015486Y-2208276D01*
X3822700Y-2678684D02*
G01*
X3822700Y-2787650D01*
X3822700Y-2678684D02*
G01*
X3869436Y-2678684D01*
X3884929Y-2683763D01*
X3890263Y-2689097D01*
X3895343Y-2699512D01*
X3895343Y-2709926D01*
X3890263Y-2720339D01*
X3884929Y-2725420D01*
X3869436Y-2730500D01*
X3822700Y-2730500D01*
X3859022Y-2730500D02*
G01*
X3895343Y-2787650D01*
X3929634Y-2699512D02*
G01*
X3940047Y-2694178D01*
X3955795Y-2678684D01*
X3955795Y-2787650D01*
X4041902Y-2678684D02*
G01*
X3990086Y-2751328D01*
X4067809Y-2751328D01*
X4041902Y-2678684D02*
G01*
X4041902Y-2787650D01*
X3898900Y-3224784D02*
G01*
X3898900Y-3333750D01*
X3898900Y-3224784D02*
G01*
X3945636Y-3224784D01*
X3961129Y-3229863D01*
X3966463Y-3235197D01*
X3971543Y-3245612D01*
X3971543Y-3256026D01*
X3966463Y-3266439D01*
X3961129Y-3271520D01*
X3945636Y-3276600D01*
X3898900Y-3276600D01*
X3935222Y-3276600D02*
G01*
X3971543Y-3333750D01*
X4005834Y-3245612D02*
G01*
X4016247Y-3240278D01*
X4031995Y-3224784D01*
X4031995Y-3333750D01*
X4128515Y-3224784D02*
G01*
X4076700Y-3224784D01*
X4071365Y-3271520D01*
X4076700Y-3266439D01*
X4092193Y-3261105D01*
X4107688Y-3261105D01*
X4123436Y-3266439D01*
X4133850Y-3276600D01*
X4138929Y-3292347D01*
X4138929Y-3302762D01*
X4133850Y-3318255D01*
X4123436Y-3328670D01*
X4107688Y-3333750D01*
X4092193Y-3333750D01*
X4076700Y-3328670D01*
X4071365Y-3323589D01*
X4066286Y-3313176D01*
X3860800Y-3821684D02*
G01*
X3860800Y-3930650D01*
X3860800Y-3821684D02*
G01*
X3907536Y-3821684D01*
X3923029Y-3826763D01*
X3928363Y-3832097D01*
X3933443Y-3842512D01*
X3933443Y-3852926D01*
X3928363Y-3863339D01*
X3923029Y-3868420D01*
X3907536Y-3873500D01*
X3860800Y-3873500D01*
X3897122Y-3873500D02*
G01*
X3933443Y-3930650D01*
X3967734Y-3842512D02*
G01*
X3978147Y-3837178D01*
X3993895Y-3821684D01*
X3993895Y-3930650D01*
X4090415Y-3837178D02*
G01*
X4085336Y-3826763D01*
X4069588Y-3821684D01*
X4059174Y-3821684D01*
X4043679Y-3826763D01*
X4033265Y-3842512D01*
X4028186Y-3868420D01*
X4028186Y-3894328D01*
X4033265Y-3915155D01*
X4043679Y-3925570D01*
X4059174Y-3930650D01*
X4064508Y-3930650D01*
X4080002Y-3925570D01*
X4090415Y-3915155D01*
X4095750Y-3899662D01*
X4095750Y-3894328D01*
X4090415Y-3878834D01*
X4080002Y-3868420D01*
X4064508Y-3863339D01*
X4059174Y-3863339D01*
X4043679Y-3868420D01*
X4033265Y-3878834D01*
X4028186Y-3894328D01*
X3784600Y-4329684D02*
G01*
X3784600Y-4438650D01*
X3784600Y-4329684D02*
G01*
X3831336Y-4329684D01*
X3846829Y-4334763D01*
X3852163Y-4340097D01*
X3857243Y-4350512D01*
X3857243Y-4360926D01*
X3852163Y-4371339D01*
X3846829Y-4376420D01*
X3831336Y-4381500D01*
X3784600Y-4381500D01*
X3820922Y-4381500D02*
G01*
X3857243Y-4438650D01*
X3891534Y-4350512D02*
G01*
X3901947Y-4345178D01*
X3917695Y-4329684D01*
X3917695Y-4438650D01*
X4024629Y-4329684D02*
G01*
X3972559Y-4438650D01*
X3951986Y-4329684D02*
G01*
X4024629Y-4329684D01*
X6947001Y-7961756D02*
G01*
X6947001Y-8039735D01*
X6952081Y-8055483D01*
X6962495Y-8065896D01*
X6977989Y-8070977D01*
X6988403Y-8070977D01*
X7004151Y-8065896D01*
X7014565Y-8055483D01*
X7019645Y-8039735D01*
X7019645Y-7961756D01*
X7053935Y-7982585D02*
G01*
X7064349Y-7977504D01*
X7079843Y-7961756D01*
X7079843Y-8070977D01*
X2833115Y-2590800D02*
G01*
X2755138Y-2590800D01*
X2739643Y-2595879D01*
X2729229Y-2606294D01*
X2724150Y-2622042D01*
X2724150Y-2632455D01*
X2729229Y-2647950D01*
X2739643Y-2658363D01*
X2755138Y-2663444D01*
X2833115Y-2663444D01*
X2807208Y-2703068D02*
G01*
X2812288Y-2703068D01*
X2822702Y-2708147D01*
X2828036Y-2713481D01*
X2833115Y-2723895D01*
X2833115Y-2744470D01*
X2828036Y-2754884D01*
X2822702Y-2760218D01*
X2812288Y-2765297D01*
X2801874Y-2765297D01*
X2791459Y-2760218D01*
X2775965Y-2749804D01*
X2724150Y-2697734D01*
X2724150Y-2770631D01*
D14*
X1178994Y-842962D02*
G01*
X1178994Y-938466D01*
X1178994Y-842962D02*
G01*
X1210744Y-842962D01*
X1224460Y-847534D01*
X1233604Y-856424D01*
X1238176Y-865568D01*
X1242748Y-879284D01*
X1242748Y-901890D01*
X1238176Y-915606D01*
X1233604Y-924750D01*
X1224460Y-933894D01*
X1210744Y-938466D01*
X1178994Y-938466D01*
X1272720Y-860996D02*
G01*
X1281610Y-856424D01*
X1295326Y-842962D01*
X1295326Y-938466D01*
X1334442Y-842962D02*
G01*
X1384480Y-842962D01*
X1357302Y-879284D01*
X1370764Y-879284D01*
X1379908Y-883856D01*
X1384480Y-888428D01*
X1389052Y-901890D01*
X1389052Y-911034D01*
X1384480Y-924750D01*
X1375336Y-933894D01*
X1361620Y-938466D01*
X1348158Y-938466D01*
X1334442Y-933894D01*
X1329870Y-929322D01*
X1325298Y-920178D01*
X1188133Y-1096957D02*
G01*
X1238171Y-1096957D01*
X1210739Y-1133279D01*
X1224455Y-1133279D01*
X1233599Y-1137851D01*
X1238171Y-1142423D01*
X1242743Y-1155885D01*
X1242743Y-1165029D01*
X1238171Y-1178745D01*
X1229027Y-1187889D01*
X1215311Y-1192461D01*
X1201595Y-1192461D01*
X1188133Y-1187889D01*
X1183561Y-1183317D01*
X1178989Y-1174173D01*
X1272715Y-1096957D02*
G01*
X1309037Y-1192461D01*
X1345359Y-1096957D02*
G01*
X1309037Y-1192461D01*
X1384475Y-1096957D02*
G01*
X1434513Y-1096957D01*
X1407081Y-1133279D01*
X1420797Y-1133279D01*
X1429941Y-1137851D01*
X1434513Y-1142423D01*
X1439085Y-1155885D01*
X1439085Y-1165029D01*
X1434513Y-1178745D01*
X1425369Y-1187889D01*
X1411653Y-1192461D01*
X1398191Y-1192461D01*
X1384475Y-1187889D01*
X1379903Y-1183317D01*
X1375331Y-1174173D01*
X1178989Y-1350957D02*
G01*
X1178989Y-1446461D01*
X1178989Y-1350957D02*
G01*
X1219883Y-1350957D01*
X1233599Y-1355529D01*
X1238171Y-1360101D01*
X1242743Y-1368991D01*
X1242743Y-1378135D01*
X1238171Y-1387279D01*
X1233599Y-1391851D01*
X1219883Y-1396423D01*
X1178989Y-1396423D01*
X1210739Y-1396423D02*
G01*
X1242743Y-1446461D01*
X1272715Y-1350957D02*
G01*
X1272715Y-1446461D01*
X1272715Y-1350957D02*
G01*
X1331643Y-1350957D01*
X1272715Y-1396423D02*
G01*
X1309037Y-1396423D01*
X1272715Y-1446461D02*
G01*
X1331643Y-1446461D01*
X1361615Y-1350957D02*
G01*
X1361615Y-1446461D01*
X1361615Y-1350957D02*
G01*
X1420797Y-1350957D01*
X1361615Y-1396423D02*
G01*
X1398191Y-1396423D01*
X1215313Y-1604959D02*
G01*
X1178991Y-1700463D01*
X1215313Y-1604959D02*
G01*
X1251635Y-1700463D01*
X1192707Y-1668459D02*
G01*
X1238173Y-1668459D01*
X1309039Y-1604959D02*
G01*
X1295323Y-1609531D01*
X1286179Y-1622993D01*
X1281607Y-1645853D01*
X1281607Y-1659315D01*
X1286179Y-1682175D01*
X1295323Y-1695891D01*
X1309039Y-1700463D01*
X1318183Y-1700463D01*
X1331645Y-1695891D01*
X1340789Y-1682175D01*
X1345361Y-1659315D01*
X1345361Y-1645853D01*
X1340789Y-1622993D01*
X1331645Y-1609531D01*
X1318183Y-1604959D01*
X1309039Y-1604959D01*
X1215311Y-1858957D02*
G01*
X1178989Y-1954461D01*
X1215311Y-1858957D02*
G01*
X1251633Y-1954461D01*
X1192705Y-1922457D02*
G01*
X1238171Y-1922457D01*
X1281605Y-1876991D02*
G01*
X1290749Y-1872419D01*
X1304465Y-1858957D01*
X1304465Y-1954461D01*
X1215313Y-2112959D02*
G01*
X1178991Y-2208463D01*
X1215313Y-2112959D02*
G01*
X1251635Y-2208463D01*
X1192707Y-2176459D02*
G01*
X1238173Y-2176459D01*
X1286179Y-2135565D02*
G01*
X1286179Y-2130993D01*
X1290751Y-2122103D01*
X1295323Y-2117531D01*
X1304467Y-2112959D01*
X1322501Y-2112959D01*
X1331645Y-2117531D01*
X1336217Y-2122103D01*
X1340789Y-2130993D01*
X1340789Y-2140137D01*
X1336217Y-2149281D01*
X1327073Y-2162997D01*
X1281607Y-2208463D01*
X1345361Y-2208463D01*
X1215313Y-2366959D02*
G01*
X1178991Y-2462463D01*
X1215313Y-2366959D02*
G01*
X1251635Y-2462463D01*
X1192707Y-2430459D02*
G01*
X1238173Y-2430459D01*
X1290751Y-2366959D02*
G01*
X1340789Y-2366959D01*
X1313611Y-2403281D01*
X1327073Y-2403281D01*
X1336217Y-2407853D01*
X1340789Y-2412425D01*
X1345361Y-2425887D01*
X1345361Y-2435031D01*
X1340789Y-2448747D01*
X1331645Y-2457891D01*
X1318183Y-2462463D01*
X1304467Y-2462463D01*
X1290751Y-2457891D01*
X1286179Y-2453319D01*
X1281607Y-2444175D01*
X1215316Y-2620962D02*
G01*
X1178994Y-2716466D01*
X1215316Y-2620962D02*
G01*
X1251638Y-2716466D01*
X1192710Y-2684462D02*
G01*
X1238176Y-2684462D01*
X1327076Y-2620962D02*
G01*
X1281610Y-2684462D01*
X1349936Y-2684462D01*
X1327076Y-2620962D02*
G01*
X1327076Y-2716466D01*
X1215313Y-2874959D02*
G01*
X1178991Y-2970463D01*
X1215313Y-2874959D02*
G01*
X1251635Y-2970463D01*
X1192707Y-2938459D02*
G01*
X1238173Y-2938459D01*
X1336217Y-2874959D02*
G01*
X1290751Y-2874959D01*
X1286179Y-2915853D01*
X1290751Y-2911281D01*
X1304467Y-2906709D01*
X1318183Y-2906709D01*
X1331645Y-2911281D01*
X1340789Y-2920425D01*
X1345361Y-2933887D01*
X1345361Y-2943031D01*
X1340789Y-2956747D01*
X1331645Y-2965891D01*
X1318183Y-2970463D01*
X1304467Y-2970463D01*
X1290751Y-2965891D01*
X1286179Y-2961319D01*
X1281607Y-2952175D01*
X1215316Y-3128962D02*
G01*
X1178994Y-3224466D01*
X1215316Y-3128962D02*
G01*
X1251638Y-3224466D01*
X1192710Y-3192462D02*
G01*
X1238176Y-3192462D01*
X1336220Y-3142424D02*
G01*
X1331648Y-3133534D01*
X1318186Y-3128962D01*
X1309042Y-3128962D01*
X1295326Y-3133534D01*
X1286182Y-3146996D01*
X1281610Y-3169856D01*
X1281610Y-3192462D01*
X1286182Y-3210750D01*
X1295326Y-3219894D01*
X1309042Y-3224466D01*
X1313614Y-3224466D01*
X1327076Y-3219894D01*
X1336220Y-3210750D01*
X1340792Y-3197034D01*
X1340792Y-3192462D01*
X1336220Y-3179000D01*
X1327076Y-3169856D01*
X1313614Y-3165284D01*
X1309042Y-3165284D01*
X1295326Y-3169856D01*
X1286182Y-3179000D01*
X1281610Y-3192462D01*
X1215313Y-3382959D02*
G01*
X1178991Y-3478463D01*
X1215313Y-3382959D02*
G01*
X1251635Y-3478463D01*
X1192707Y-3446459D02*
G01*
X1238173Y-3446459D01*
X1345361Y-3382959D02*
G01*
X1299895Y-3478463D01*
X1281607Y-3382959D02*
G01*
X1345361Y-3382959D01*
X1233601Y-3636959D02*
G01*
X1188135Y-3636959D01*
X1183563Y-3677853D01*
X1188135Y-3673281D01*
X1201597Y-3668709D01*
X1215313Y-3668709D01*
X1229029Y-3673281D01*
X1238173Y-3682425D01*
X1242745Y-3695887D01*
X1242745Y-3705031D01*
X1238173Y-3718747D01*
X1229029Y-3727891D01*
X1215313Y-3732463D01*
X1201597Y-3732463D01*
X1188135Y-3727891D01*
X1183563Y-3723319D01*
X1178991Y-3714175D01*
X1272717Y-3636959D02*
G01*
X1309039Y-3732463D01*
X1345361Y-3636959D02*
G01*
X1309039Y-3732463D01*
X1178989Y-3890957D02*
G01*
X1178989Y-3986461D01*
X1178989Y-3890957D02*
G01*
X1219883Y-3890957D01*
X1233599Y-3895529D01*
X1238171Y-3900101D01*
X1242743Y-3908991D01*
X1242743Y-3918135D01*
X1238171Y-3927279D01*
X1233599Y-3931851D01*
X1219883Y-3936423D01*
X1178989Y-3936423D01*
X1210739Y-3936423D02*
G01*
X1242743Y-3986461D01*
X1336215Y-3904419D02*
G01*
X1327071Y-3895529D01*
X1313609Y-3890957D01*
X1295321Y-3890957D01*
X1281605Y-3895529D01*
X1272715Y-3904419D01*
X1272715Y-3913563D01*
X1277287Y-3922707D01*
X1281605Y-3927279D01*
X1290749Y-3931851D01*
X1318181Y-3940995D01*
X1327071Y-3945313D01*
X1331643Y-3949885D01*
X1336215Y-3959029D01*
X1336215Y-3972745D01*
X1327071Y-3981889D01*
X1313609Y-3986461D01*
X1295321Y-3986461D01*
X1281605Y-3981889D01*
X1272715Y-3972745D01*
X1398191Y-3890957D02*
G01*
X1398191Y-3986461D01*
X1366187Y-3890957D02*
G01*
X1429941Y-3890957D01*
X1247063Y-4167565D02*
G01*
X1242745Y-4158421D01*
X1233601Y-4149531D01*
X1224457Y-4144959D01*
X1206169Y-4144959D01*
X1197279Y-4149531D01*
X1188135Y-4158421D01*
X1183563Y-4167565D01*
X1178991Y-4181281D01*
X1178991Y-4203887D01*
X1183563Y-4217603D01*
X1188135Y-4226747D01*
X1197279Y-4235891D01*
X1206169Y-4240463D01*
X1224457Y-4240463D01*
X1233601Y-4235891D01*
X1242745Y-4226747D01*
X1247063Y-4217603D01*
X1247063Y-4203887D01*
X1224457Y-4203887D02*
G01*
X1247063Y-4203887D01*
X1277289Y-4144959D02*
G01*
X1277289Y-4240463D01*
X1277289Y-4144959D02*
G01*
X1340789Y-4240463D01*
X1340789Y-4144959D02*
G01*
X1340789Y-4240463D01*
X1370761Y-4144959D02*
G01*
X1370761Y-4240463D01*
X1370761Y-4144959D02*
G01*
X1402511Y-4144959D01*
X1416227Y-4149531D01*
X1425371Y-4158421D01*
X1429943Y-4167565D01*
X1434515Y-4181281D01*
X1434515Y-4203887D01*
X1429943Y-4217603D01*
X1425371Y-4226747D01*
X1416227Y-4235891D01*
X1402511Y-4240463D01*
X1370761Y-4240463D01*
X1178994Y-4398962D02*
G01*
X1215316Y-4494466D01*
X1251638Y-4398962D02*
G01*
X1215316Y-4494466D01*
X1281610Y-4398962D02*
G01*
X1281610Y-4494466D01*
X1311836Y-4398962D02*
G01*
X1311836Y-4494466D01*
X1311836Y-4398962D02*
G01*
X1375336Y-4494466D01*
X1375336Y-4398962D02*
G01*
X1375336Y-4494466D01*
X2167892Y-840958D02*
G01*
X2167892Y-936462D01*
X2167892Y-840958D02*
G01*
X2199642Y-840958D01*
X2213358Y-845530D01*
X2222502Y-854420D01*
X2227074Y-863564D01*
X2231646Y-877280D01*
X2231646Y-899886D01*
X2227074Y-913602D01*
X2222502Y-922746D01*
X2213358Y-931890D01*
X2199642Y-936462D01*
X2167892Y-936462D01*
X2261618Y-858992D02*
G01*
X2270508Y-854420D01*
X2284224Y-840958D01*
X2284224Y-936462D01*
X2318768Y-863564D02*
G01*
X2318768Y-858992D01*
X2323340Y-850102D01*
X2327912Y-845530D01*
X2337056Y-840958D01*
X2355090Y-840958D01*
X2364234Y-845530D01*
X2368806Y-850102D01*
X2373378Y-858992D01*
X2373378Y-868136D01*
X2368806Y-877280D01*
X2359662Y-890996D01*
X2314196Y-936462D01*
X2377950Y-936462D01*
X2208786Y-1094955D02*
G01*
X2208786Y-1190459D01*
X2208786Y-1094955D02*
G01*
X2240536Y-1094955D01*
X2254252Y-1099527D01*
X2263396Y-1108417D01*
X2267968Y-1117561D01*
X2272540Y-1131277D01*
X2272540Y-1153883D01*
X2267968Y-1167599D01*
X2263396Y-1176743D01*
X2254252Y-1185887D01*
X2240536Y-1190459D01*
X2208786Y-1190459D01*
X2302512Y-1112989D02*
G01*
X2311402Y-1108417D01*
X2325118Y-1094955D01*
X2325118Y-1190459D01*
X2355090Y-1112989D02*
G01*
X2364234Y-1108417D01*
X2377950Y-1094955D01*
X2377950Y-1190459D01*
X2167892Y-1348958D02*
G01*
X2167892Y-1444462D01*
X2167892Y-1348958D02*
G01*
X2199642Y-1348958D01*
X2213358Y-1353530D01*
X2222502Y-1362420D01*
X2227074Y-1371564D01*
X2231646Y-1385280D01*
X2231646Y-1407886D01*
X2227074Y-1421602D01*
X2222502Y-1430746D01*
X2213358Y-1439890D01*
X2199642Y-1444462D01*
X2167892Y-1444462D01*
X2261618Y-1366992D02*
G01*
X2270508Y-1362420D01*
X2284224Y-1348958D01*
X2284224Y-1444462D01*
X2341628Y-1348958D02*
G01*
X2327912Y-1353530D01*
X2318768Y-1366992D01*
X2314196Y-1389852D01*
X2314196Y-1403314D01*
X2318768Y-1426174D01*
X2327912Y-1439890D01*
X2341628Y-1444462D01*
X2350518Y-1444462D01*
X2364234Y-1439890D01*
X2373378Y-1426174D01*
X2377950Y-1403314D01*
X2377950Y-1389852D01*
X2373378Y-1366992D01*
X2364234Y-1353530D01*
X2350518Y-1348958D01*
X2341628Y-1348958D01*
X2225296Y-1602958D02*
G01*
X2225296Y-1698462D01*
X2225296Y-1602958D02*
G01*
X2257046Y-1602958D01*
X2270762Y-1607530D01*
X2279906Y-1616420D01*
X2284478Y-1625564D01*
X2289050Y-1639280D01*
X2289050Y-1661886D01*
X2284478Y-1675602D01*
X2279906Y-1684746D01*
X2270762Y-1693890D01*
X2257046Y-1698462D01*
X2225296Y-1698462D01*
X2377950Y-1634708D02*
G01*
X2373378Y-1648424D01*
X2364488Y-1657314D01*
X2350772Y-1661886D01*
X2346200Y-1661886D01*
X2332484Y-1657314D01*
X2323594Y-1648424D01*
X2319022Y-1634708D01*
X2319022Y-1630136D01*
X2323594Y-1616420D01*
X2332484Y-1607530D01*
X2346200Y-1602958D01*
X2350772Y-1602958D01*
X2364488Y-1607530D01*
X2373378Y-1616420D01*
X2377950Y-1634708D01*
X2377950Y-1657314D01*
X2373378Y-1680174D01*
X2364488Y-1693890D01*
X2350772Y-1698462D01*
X2341628Y-1698462D01*
X2327912Y-1693890D01*
X2323594Y-1684746D01*
X2220724Y-1856955D02*
G01*
X2220724Y-1952459D01*
X2220724Y-1856955D02*
G01*
X2252474Y-1856955D01*
X2266190Y-1861527D01*
X2275334Y-1870417D01*
X2279906Y-1879561D01*
X2284478Y-1893277D01*
X2284478Y-1915883D01*
X2279906Y-1929599D01*
X2275334Y-1938743D01*
X2266190Y-1947887D01*
X2252474Y-1952459D01*
X2220724Y-1952459D01*
X2337056Y-1856955D02*
G01*
X2323340Y-1861527D01*
X2319022Y-1870417D01*
X2319022Y-1879561D01*
X2323340Y-1888705D01*
X2332484Y-1893277D01*
X2350772Y-1897849D01*
X2364234Y-1902421D01*
X2373378Y-1911311D01*
X2377950Y-1920455D01*
X2377950Y-1934171D01*
X2373378Y-1943315D01*
X2368806Y-1947887D01*
X2355344Y-1952459D01*
X2337056Y-1952459D01*
X2323340Y-1947887D01*
X2319022Y-1943315D01*
X2314450Y-1934171D01*
X2314450Y-1920455D01*
X2319022Y-1911311D01*
X2327912Y-1902421D01*
X2341628Y-1897849D01*
X2359916Y-1893277D01*
X2368806Y-1888705D01*
X2373378Y-1879561D01*
X2373378Y-1870417D01*
X2368806Y-1861527D01*
X2355344Y-1856955D01*
X2337056Y-1856955D01*
X2220724Y-2110958D02*
G01*
X2220724Y-2206462D01*
X2220724Y-2110958D02*
G01*
X2252474Y-2110958D01*
X2266190Y-2115530D01*
X2275334Y-2124420D01*
X2279906Y-2133564D01*
X2284478Y-2147280D01*
X2284478Y-2169886D01*
X2279906Y-2183602D01*
X2275334Y-2192746D01*
X2266190Y-2201890D01*
X2252474Y-2206462D01*
X2220724Y-2206462D01*
X2377950Y-2110958D02*
G01*
X2332484Y-2206462D01*
X2314450Y-2110958D02*
G01*
X2377950Y-2110958D01*
X2225296Y-2364958D02*
G01*
X2225296Y-2460462D01*
X2225296Y-2364958D02*
G01*
X2257046Y-2364958D01*
X2270762Y-2369530D01*
X2279906Y-2378420D01*
X2284478Y-2387564D01*
X2289050Y-2401280D01*
X2289050Y-2423886D01*
X2284478Y-2437602D01*
X2279906Y-2446746D01*
X2270762Y-2455890D01*
X2257046Y-2460462D01*
X2225296Y-2460462D01*
X2373378Y-2378420D02*
G01*
X2368806Y-2369530D01*
X2355344Y-2364958D01*
X2346200Y-2364958D01*
X2332484Y-2369530D01*
X2323594Y-2382992D01*
X2319022Y-2405852D01*
X2319022Y-2428458D01*
X2323594Y-2446746D01*
X2332484Y-2455890D01*
X2346200Y-2460462D01*
X2350772Y-2460462D01*
X2364488Y-2455890D01*
X2373378Y-2446746D01*
X2377950Y-2433030D01*
X2377950Y-2428458D01*
X2373378Y-2414996D01*
X2364488Y-2405852D01*
X2350772Y-2401280D01*
X2346200Y-2401280D01*
X2332484Y-2405852D01*
X2323594Y-2414996D01*
X2319022Y-2428458D01*
X2220724Y-2618955D02*
G01*
X2220724Y-2714459D01*
X2220724Y-2618955D02*
G01*
X2252474Y-2618955D01*
X2266190Y-2623527D01*
X2275334Y-2632417D01*
X2279906Y-2641561D01*
X2284478Y-2655277D01*
X2284478Y-2677883D01*
X2279906Y-2691599D01*
X2275334Y-2700743D01*
X2266190Y-2709887D01*
X2252474Y-2714459D01*
X2220724Y-2714459D01*
X2368806Y-2618955D02*
G01*
X2323340Y-2618955D01*
X2319022Y-2659849D01*
X2323340Y-2655277D01*
X2337056Y-2650705D01*
X2350772Y-2650705D01*
X2364234Y-2655277D01*
X2373378Y-2664421D01*
X2377950Y-2677883D01*
X2377950Y-2687027D01*
X2373378Y-2700743D01*
X2364234Y-2709887D01*
X2350772Y-2714459D01*
X2337056Y-2714459D01*
X2323340Y-2709887D01*
X2319022Y-2705315D01*
X2314450Y-2696171D01*
X2216152Y-2872958D02*
G01*
X2216152Y-2968462D01*
X2216152Y-2872958D02*
G01*
X2247902Y-2872958D01*
X2261618Y-2877530D01*
X2270762Y-2886420D01*
X2275334Y-2895564D01*
X2279906Y-2909280D01*
X2279906Y-2931886D01*
X2275334Y-2945602D01*
X2270762Y-2954746D01*
X2261618Y-2963890D01*
X2247902Y-2968462D01*
X2216152Y-2968462D01*
X2355344Y-2872958D02*
G01*
X2309878Y-2936458D01*
X2377950Y-2936458D01*
X2355344Y-2872958D02*
G01*
X2355344Y-2968462D01*
X2220724Y-3126958D02*
G01*
X2220724Y-3222462D01*
X2220724Y-3126958D02*
G01*
X2252474Y-3126958D01*
X2266190Y-3131530D01*
X2275334Y-3140420D01*
X2279906Y-3149564D01*
X2284478Y-3163280D01*
X2284478Y-3185886D01*
X2279906Y-3199602D01*
X2275334Y-3208746D01*
X2266190Y-3217890D01*
X2252474Y-3222462D01*
X2220724Y-3222462D01*
X2323340Y-3126958D02*
G01*
X2373378Y-3126958D01*
X2346200Y-3163280D01*
X2359916Y-3163280D01*
X2368806Y-3167852D01*
X2373378Y-3172424D01*
X2377950Y-3185886D01*
X2377950Y-3195030D01*
X2373378Y-3208746D01*
X2364234Y-3217890D01*
X2350772Y-3222462D01*
X2337056Y-3222462D01*
X2323340Y-3217890D01*
X2319022Y-3213318D01*
X2314450Y-3204174D01*
X2220724Y-3380955D02*
G01*
X2220724Y-3476459D01*
X2220724Y-3380955D02*
G01*
X2252474Y-3380955D01*
X2266190Y-3385527D01*
X2275334Y-3394417D01*
X2279906Y-3403561D01*
X2284478Y-3417277D01*
X2284478Y-3439883D01*
X2279906Y-3453599D01*
X2275334Y-3462743D01*
X2266190Y-3471887D01*
X2252474Y-3476459D01*
X2220724Y-3476459D01*
X2319022Y-3403561D02*
G01*
X2319022Y-3398989D01*
X2323340Y-3390099D01*
X2327912Y-3385527D01*
X2337056Y-3380955D01*
X2355344Y-3380955D01*
X2364234Y-3385527D01*
X2368806Y-3390099D01*
X2373378Y-3398989D01*
X2373378Y-3408133D01*
X2368806Y-3417277D01*
X2359916Y-3430993D01*
X2314450Y-3476459D01*
X2377950Y-3476459D01*
X2190498Y-3657564D02*
G01*
X2186180Y-3648420D01*
X2177036Y-3639530D01*
X2167892Y-3634958D01*
X2149604Y-3634958D01*
X2140714Y-3639530D01*
X2131570Y-3648420D01*
X2126998Y-3657564D01*
X2122426Y-3671280D01*
X2122426Y-3693886D01*
X2126998Y-3707602D01*
X2131570Y-3716746D01*
X2140714Y-3725890D01*
X2149604Y-3730462D01*
X2167892Y-3730462D01*
X2177036Y-3725890D01*
X2186180Y-3716746D01*
X2190498Y-3707602D01*
X2190498Y-3693886D01*
X2167892Y-3693886D02*
G01*
X2190498Y-3693886D01*
X2220724Y-3634958D02*
G01*
X2220724Y-3730462D01*
X2220724Y-3634958D02*
G01*
X2284224Y-3730462D01*
X2284224Y-3634958D02*
G01*
X2284224Y-3730462D01*
X2314196Y-3634958D02*
G01*
X2314196Y-3730462D01*
X2314196Y-3634958D02*
G01*
X2345946Y-3634958D01*
X2359662Y-3639530D01*
X2368806Y-3648420D01*
X2373378Y-3657564D01*
X2377950Y-3671280D01*
X2377950Y-3693886D01*
X2373378Y-3707602D01*
X2368806Y-3716746D01*
X2359662Y-3725890D01*
X2345946Y-3730462D01*
X2314196Y-3730462D01*
X2126998Y-3888958D02*
G01*
X2126998Y-3984462D01*
X2126998Y-3888958D02*
G01*
X2167892Y-3888958D01*
X2181608Y-3893530D01*
X2186180Y-3898102D01*
X2190752Y-3906992D01*
X2190752Y-3916136D01*
X2186180Y-3925280D01*
X2181608Y-3929852D01*
X2167892Y-3934424D01*
X2126998Y-3934424D01*
X2158748Y-3934424D02*
G01*
X2190752Y-3984462D01*
X2284224Y-3902420D02*
G01*
X2275080Y-3893530D01*
X2261618Y-3888958D01*
X2243330Y-3888958D01*
X2229614Y-3893530D01*
X2220724Y-3902420D01*
X2220724Y-3911564D01*
X2225296Y-3920708D01*
X2229614Y-3925280D01*
X2238758Y-3929852D01*
X2266190Y-3938996D01*
X2275080Y-3943314D01*
X2279652Y-3947886D01*
X2284224Y-3957030D01*
X2284224Y-3970746D01*
X2275080Y-3979890D01*
X2261618Y-3984462D01*
X2243330Y-3984462D01*
X2229614Y-3979890D01*
X2220724Y-3970746D01*
X2346200Y-3888958D02*
G01*
X2346200Y-3984462D01*
X2314196Y-3888958D02*
G01*
X2377950Y-3888958D01*
X2126998Y-4142955D02*
G01*
X2126998Y-4238459D01*
X2126998Y-4142955D02*
G01*
X2167892Y-4142955D01*
X2181608Y-4147527D01*
X2186180Y-4152099D01*
X2190752Y-4160989D01*
X2190752Y-4170133D01*
X2186180Y-4179277D01*
X2181608Y-4183849D01*
X2167892Y-4188421D01*
X2126998Y-4188421D01*
X2158748Y-4188421D02*
G01*
X2190752Y-4238459D01*
X2220724Y-4142955D02*
G01*
X2284224Y-4238459D01*
X2284224Y-4142955D02*
G01*
X2220724Y-4238459D01*
X2314196Y-4142955D02*
G01*
X2314196Y-4238459D01*
X2314196Y-4142955D02*
G01*
X2346200Y-4142955D01*
X2359662Y-4147527D01*
X2368806Y-4156417D01*
X2373378Y-4165561D01*
X2377950Y-4179277D01*
X2377950Y-4201883D01*
X2373378Y-4215599D01*
X2368806Y-4224743D01*
X2359662Y-4233887D01*
X2346200Y-4238459D01*
X2314196Y-4238459D01*
X2158748Y-4396958D02*
G01*
X2158748Y-4492462D01*
X2126998Y-4396958D02*
G01*
X2190752Y-4396958D01*
X2220724Y-4396958D02*
G01*
X2284224Y-4492462D01*
X2284224Y-4396958D02*
G01*
X2220724Y-4492462D01*
X2314196Y-4396958D02*
G01*
X2314196Y-4492462D01*
X2314196Y-4396958D02*
G01*
X2346200Y-4396958D01*
X2359662Y-4401530D01*
X2368806Y-4410420D01*
X2373378Y-4419564D01*
X2377950Y-4433280D01*
X2377950Y-4455886D01*
X2373378Y-4469602D01*
X2368806Y-4478746D01*
X2359662Y-4487890D01*
X2346200Y-4492462D01*
X2314196Y-4492462D01*
D12*
X6299200Y-1398015D02*
G01*
X6299200Y-1320037D01*
X6294120Y-1304544D01*
X6283706Y-1294129D01*
X6267958Y-1289050D01*
X6257543Y-1289050D01*
X6242050Y-1294129D01*
X6231636Y-1304544D01*
X6226556Y-1320037D01*
X6226556Y-1398015D01*
X6181852Y-1398015D02*
G01*
X6124702Y-1398015D01*
X6155690Y-1356360D01*
X6140195Y-1356360D01*
X6129781Y-1351279D01*
X6124702Y-1346200D01*
X6119368Y-1330452D01*
X6119368Y-1320037D01*
X6124702Y-1304544D01*
X6135115Y-1294129D01*
X6150609Y-1289050D01*
X6166104Y-1289050D01*
X6181852Y-1294129D01*
X6186931Y-1299210D01*
X6192265Y-1309623D01*
X6728399Y-4113656D02*
G01*
X6728399Y-4191635D01*
X6733479Y-4207382D01*
X6743893Y-4217796D01*
X6759387Y-4222877D01*
X6769801Y-4222877D01*
X6785549Y-4217796D01*
X6795963Y-4207382D01*
X6801043Y-4191635D01*
X6801043Y-4113656D01*
X6897563Y-4113656D02*
G01*
X6845747Y-4113656D01*
X6840413Y-4160646D01*
X6845747Y-4155312D01*
X6861241Y-4150232D01*
X6876989Y-4150232D01*
X6892483Y-4155312D01*
X6902897Y-4165727D01*
X6907977Y-4181220D01*
X6907977Y-4191635D01*
X6902897Y-4207382D01*
X6892483Y-4217796D01*
X6876989Y-4222877D01*
X6861241Y-4222877D01*
X6845747Y-4217796D01*
X6840413Y-4212462D01*
X6835333Y-4202048D01*
D10*
X1223771Y-6118857D02*
G01*
X1219454Y-6109713D01*
X1210310Y-6100569D01*
X1201165Y-6095997D01*
X1182878Y-6095997D01*
X1173987Y-6100569D01*
X1164844Y-6109713D01*
X1160271Y-6118857D01*
X1155700Y-6132319D01*
X1155700Y-6155179D01*
X1160271Y-6168895D01*
X1164844Y-6177785D01*
X1173987Y-6186929D01*
X1182878Y-6191501D01*
X1201165Y-6191501D01*
X1210310Y-6186929D01*
X1219454Y-6177785D01*
X1223771Y-6168895D01*
X1223771Y-6155179D01*
X1201165Y-6155179D02*
G01*
X1223771Y-6155179D01*
X1253997Y-6095997D02*
G01*
X1253997Y-6191501D01*
X1253997Y-6095997D02*
G01*
X1317497Y-6191501D01*
X1317497Y-6095997D02*
G01*
X1317497Y-6191501D01*
X1347470Y-6095997D02*
G01*
X1347470Y-6191501D01*
X1347470Y-6095997D02*
G01*
X1379220Y-6095997D01*
X1392936Y-6100569D01*
X1402079Y-6109713D01*
X1406652Y-6118857D01*
X1411223Y-6132319D01*
X1411223Y-6155179D01*
X1406652Y-6168895D01*
X1402079Y-6177785D01*
X1392936Y-6186929D01*
X1379220Y-6191501D01*
X1347470Y-6191501D01*
X1511045Y-6095997D02*
G01*
X1547621Y-6191501D01*
X1583944Y-6095997D02*
G01*
X1547621Y-6191501D01*
X1668526Y-6141463D02*
G01*
X1659381Y-6132319D01*
X1650237Y-6128001D01*
X1636521Y-6128001D01*
X1627631Y-6132319D01*
X1618487Y-6141463D01*
X1613915Y-6155179D01*
X1613915Y-6164323D01*
X1618487Y-6177785D01*
X1627631Y-6186929D01*
X1636521Y-6191501D01*
X1650237Y-6191501D01*
X1659381Y-6186929D01*
X1668526Y-6177785D01*
X1752854Y-6141463D02*
G01*
X1743963Y-6132319D01*
X1734820Y-6128001D01*
X1721104Y-6128001D01*
X1711960Y-6132319D01*
X1703070Y-6141463D01*
X1698497Y-6155179D01*
X1698497Y-6164323D01*
X1703070Y-6177785D01*
X1711960Y-6186929D01*
X1721104Y-6191501D01*
X1734820Y-6191501D01*
X1743963Y-6186929D01*
X1752854Y-6177785D01*
X1916684Y-6109713D02*
G01*
X1907539Y-6100569D01*
X1893823Y-6095997D01*
X1875789Y-6095997D01*
X1862073Y-6100569D01*
X1852929Y-6109713D01*
X1852929Y-6118857D01*
X1857502Y-6128001D01*
X1862073Y-6132319D01*
X1871218Y-6136891D01*
X1898395Y-6146035D01*
X1907539Y-6150607D01*
X1912112Y-6155179D01*
X1916684Y-6164323D01*
X1916684Y-6177785D01*
X1907539Y-6186929D01*
X1893823Y-6191501D01*
X1875789Y-6191501D01*
X1862073Y-6186929D01*
X1852929Y-6177785D01*
X2014727Y-6118857D02*
G01*
X2010156Y-6109713D01*
X2001265Y-6100569D01*
X1992122Y-6095997D01*
X1973834Y-6095997D01*
X1964690Y-6100569D01*
X1955800Y-6109713D01*
X1951227Y-6118857D01*
X1946656Y-6132319D01*
X1946656Y-6155179D01*
X1951227Y-6168895D01*
X1955800Y-6177785D01*
X1964690Y-6186929D01*
X1973834Y-6191501D01*
X1992122Y-6191501D01*
X2001265Y-6186929D01*
X2010156Y-6177785D01*
X2014727Y-6168895D01*
X2044700Y-6095997D02*
G01*
X2044700Y-6191501D01*
X2044700Y-6191501D02*
G01*
X2099309Y-6191501D01*
X2262886Y-6109713D02*
G01*
X2253995Y-6100569D01*
X2240279Y-6095997D01*
X2221991Y-6095997D01*
X2208529Y-6100569D01*
X2199386Y-6109713D01*
X2199386Y-6118857D01*
X2203958Y-6128001D01*
X2208529Y-6132319D01*
X2217420Y-6136891D01*
X2244852Y-6146035D01*
X2253995Y-6150607D01*
X2258313Y-6155179D01*
X2262886Y-6164323D01*
X2262886Y-6177785D01*
X2253995Y-6186929D01*
X2240279Y-6191501D01*
X2221991Y-6191501D01*
X2208529Y-6186929D01*
X2199386Y-6177785D01*
X2292858Y-6095997D02*
G01*
X2292858Y-6191501D01*
X2292858Y-6095997D02*
G01*
X2324861Y-6095997D01*
X2338324Y-6100569D01*
X2347468Y-6109713D01*
X2352040Y-6118857D01*
X2356611Y-6132319D01*
X2356611Y-6155179D01*
X2352040Y-6168895D01*
X2347468Y-6177785D01*
X2338324Y-6186929D01*
X2324861Y-6191501D01*
X2292858Y-6191501D01*
X2422906Y-6095997D02*
G01*
X2386584Y-6191501D01*
X2422906Y-6095997D02*
G01*
X2459227Y-6191501D01*
X2400300Y-6159751D02*
G01*
X2445765Y-6159751D01*
D15*
X3048000Y-4826000D02*
G01*
X2674617Y-4826000D01*
D16*
X5207000Y-2413000D02*
G01*
X5207000Y-3662949D01*
X5715000Y-4191000D01*
X5715000Y-5334000D01*
X5207000Y-5842000D01*
X5207000Y-7629982D01*
X5704890Y-8127872D01*
X5705144Y-8382127D01*
D15*
X6985000Y-635000D02*
G01*
X6858000Y-508000D01*
X6858000Y-254000D01*
X6985000Y-127000D01*
X7239000Y-127000D01*
X7366000Y-254000D01*
X7366000Y-508000D01*
X7239000Y-635000D01*
X6985000Y-635000D01*
X4699000Y-254000D02*
G01*
X4699000Y-4572000D01*
X4452617Y-4826000D01*
X3048000Y-4826000D02*
G01*
X4445000Y-4826000D01*
X4699000Y-5080000D01*
X4699000Y-8255000D01*
X4699000Y-9779000D01*
X254000Y-635000D02*
G01*
X127000Y-508000D01*
X127000Y-254000D01*
X254000Y-127000D01*
X508000Y-127000D01*
X635000Y-254000D01*
X635000Y-508000D01*
X508000Y-635000D01*
X254000Y-635000D01*
X6985000Y-9652000D02*
G01*
X6858000Y-9525000D01*
X6858000Y-9271000D01*
X6985000Y-9144000D01*
X7239000Y-9144000D01*
X7366000Y-9271000D01*
X7366000Y-9525000D01*
X7239000Y-9652000D01*
X6985000Y-9652000D01*
X254000Y-9652000D02*
G01*
X127000Y-9525000D01*
X127000Y-9271000D01*
X254000Y-9144000D01*
X508000Y-9144000D01*
X635000Y-9271000D01*
X635000Y-9525000D01*
X508000Y-9652000D01*
X254000Y-9652000D01*
X889000Y-4833612D02*
G01*
X881387Y-4833612D01*
X508000Y-5207000D01*
D17*
X7239254Y-1143254D02*
G01*
X7239254Y-1651254D01*
X7493254Y-1651254D01*
X7493254Y-1143254D01*
X7239254Y-1143254D01*
D15*
X6350000Y-6565900D02*
G01*
X6350000Y-6497500D01*
X5842000Y-6565900D02*
G01*
X5842000Y-6497500D01*
X6223000Y-7391400D02*
G01*
X6223000Y-7472499D01*
X5969000Y-7391400D02*
G01*
X5969000Y-7472499D01*
X7229002Y-6497500D02*
G01*
X7229002Y-7472499D01*
X7112000Y-7391400D02*
G01*
X7112000Y-7472499D01*
X4962999Y-7472499D02*
G01*
X7229000Y-7472499D01*
X4962999Y-6497500D02*
G01*
X7229000Y-6497500D01*
X5080000Y-7391400D02*
G01*
X5080000Y-7472499D01*
X4953000Y-6497500D02*
G01*
X4953000Y-7472499D01*
X5029200Y-6565900D02*
G01*
X7162800Y-6565900D01*
X7162800Y-7391400D01*
X5029200Y-7391400D01*
X5029200Y-6565900D01*
X6350000Y-2628900D02*
G01*
X6350000Y-2560500D01*
X5842000Y-2628900D02*
G01*
X5842000Y-2560500D01*
X6223000Y-3454400D02*
G01*
X6223000Y-3535499D01*
X5969000Y-3454400D02*
G01*
X5969000Y-3535499D01*
X7229002Y-2560500D02*
G01*
X7229002Y-3535499D01*
X7112000Y-3454400D02*
G01*
X7112000Y-3535499D01*
X4962999Y-3535499D02*
G01*
X7229000Y-3535499D01*
X4962999Y-2560500D02*
G01*
X7229000Y-2560500D01*
X5080000Y-3454400D02*
G01*
X5080000Y-3535499D01*
X4953000Y-2560500D02*
G01*
X4953000Y-3535499D01*
X5029200Y-2628900D02*
G01*
X7162800Y-2628900D01*
X7162800Y-3454400D01*
X5029200Y-3454400D01*
X5029200Y-2628900D01*
X3621999Y-4975875D02*
G01*
X4252000Y-4975875D01*
X4252000Y-4975875D02*
G01*
X4252000Y-5215874D01*
X4252000Y-5215874D02*
G01*
X3621999Y-5215874D01*
X3621999Y-5215874D02*
G01*
X3621999Y-4975875D01*
X3621999Y-5531500D02*
G01*
X4252000Y-5531500D01*
X4252000Y-5531500D02*
G01*
X4252000Y-5771499D01*
X4252000Y-5771499D02*
G01*
X3621999Y-5771499D01*
X3621999Y-5771499D02*
G01*
X3621999Y-5531500D01*
X3621999Y-6087125D02*
G01*
X4252000Y-6087125D01*
X4252000Y-6087125D02*
G01*
X4252000Y-6327124D01*
X4252000Y-6327124D02*
G01*
X3621999Y-6327124D01*
X3621999Y-6327124D02*
G01*
X3621999Y-6087125D01*
X3621999Y-6642750D02*
G01*
X4252000Y-6642750D01*
X4252000Y-6642750D02*
G01*
X4252000Y-6882749D01*
X4252000Y-6882749D02*
G01*
X3621999Y-6882749D01*
X3621999Y-6882749D02*
G01*
X3621999Y-6642750D01*
X3621999Y-7198375D02*
G01*
X4252000Y-7198375D01*
X4252000Y-7198375D02*
G01*
X4252000Y-7438374D01*
X4252000Y-7438374D02*
G01*
X3621999Y-7438374D01*
X3621999Y-7438374D02*
G01*
X3621999Y-7198375D01*
X3621999Y-7754000D02*
G01*
X4252000Y-7754000D01*
X4252000Y-7754000D02*
G01*
X4252000Y-7993999D01*
X4252000Y-7993999D02*
G01*
X3621999Y-7993999D01*
X3621999Y-7993999D02*
G01*
X3621999Y-7754000D01*
X3621999Y-8309625D02*
G01*
X4252000Y-8309625D01*
X4252000Y-8309625D02*
G01*
X4252000Y-8549624D01*
X4252000Y-8549624D02*
G01*
X3621999Y-8549624D01*
X3621999Y-8549624D02*
G01*
X3621999Y-8309625D01*
X3621999Y-8865250D02*
G01*
X4252000Y-8865250D01*
X4252000Y-8865250D02*
G01*
X4252000Y-9105249D01*
X4252000Y-9105249D02*
G01*
X3621999Y-9105249D01*
X3621999Y-9105249D02*
G01*
X3621999Y-8865250D01*
X3621999Y-9420875D02*
G01*
X4252000Y-9420875D01*
X4252000Y-9420875D02*
G01*
X4252000Y-9660874D01*
X4252000Y-9660874D02*
G01*
X3621999Y-9660874D01*
X3621999Y-9660874D02*
G01*
X3621999Y-9420875D01*
X3621999Y-351713D02*
G01*
X4252000Y-351713D01*
X4252000Y-351713D02*
G01*
X4252000Y-591713D01*
X4252000Y-591713D02*
G01*
X3621999Y-591713D01*
X3621999Y-591713D02*
G01*
X3621999Y-351713D01*
X3621999Y-914140D02*
G01*
X4252000Y-914140D01*
X4252000Y-914140D02*
G01*
X4252000Y-1154140D01*
X4252000Y-1154140D02*
G01*
X3621999Y-1154140D01*
X3621999Y-1154140D02*
G01*
X3621999Y-914140D01*
X3621999Y-1476568D02*
G01*
X4252000Y-1476568D01*
X4252000Y-1476568D02*
G01*
X4252000Y-1716567D01*
X4252000Y-1716567D02*
G01*
X3621999Y-1716567D01*
X3621999Y-1716567D02*
G01*
X3621999Y-1476568D01*
X3621999Y-2039000D02*
G01*
X4252000Y-2039000D01*
X4252000Y-2039000D02*
G01*
X4252000Y-2278999D01*
X4252000Y-2278999D02*
G01*
X3621999Y-2278999D01*
X3621999Y-2278999D02*
G01*
X3621999Y-2039000D01*
X3621999Y-2601429D02*
G01*
X4252000Y-2601429D01*
X4252000Y-2601429D02*
G01*
X4252000Y-2841429D01*
X4252000Y-2841429D02*
G01*
X3621999Y-2841429D01*
X3621999Y-2841429D02*
G01*
X3621999Y-2601429D01*
X3621999Y-3163859D02*
G01*
X4252000Y-3163859D01*
X4252000Y-3163859D02*
G01*
X4252000Y-3403859D01*
X4252000Y-3403859D02*
G01*
X3621999Y-3403859D01*
X3621999Y-3403859D02*
G01*
X3621999Y-3163859D01*
X3621999Y-3726286D02*
G01*
X4252000Y-3726286D01*
X4252000Y-3726286D02*
G01*
X4252000Y-3966286D01*
X4252000Y-3966286D02*
G01*
X3621999Y-3966286D01*
X3621999Y-3966286D02*
G01*
X3621999Y-3726286D01*
X3621999Y-4288713D02*
G01*
X4252000Y-4288713D01*
X4252000Y-4288713D02*
G01*
X4252000Y-4528713D01*
X4252000Y-4528713D02*
G01*
X3621999Y-4528713D01*
X3621999Y-4528713D02*
G01*
X3621999Y-4288713D01*
X5578002Y-8254949D02*
G01*
X5832002Y-8254949D01*
X5832002Y-8508949D01*
X5578002Y-8508949D01*
X5578002Y-8254949D01*
X5197002Y-7829956D02*
G01*
X7229002Y-7829956D01*
X7229002Y-8748953D01*
X5197002Y-8748953D01*
X5197002Y-7829956D01*
X5958011Y-8609990D02*
G01*
X6452016Y-8609990D01*
X6452016Y-8747988D01*
X5958011Y-8747988D01*
X5958011Y-8609990D01*
X5326491Y-8749995D02*
G01*
X5585495Y-8749995D01*
X5585495Y-8890000D01*
X5326491Y-8890000D01*
X5326491Y-8749995D01*
X6845005Y-8749004D02*
G01*
X7104009Y-8749004D01*
X7104009Y-8889009D01*
X6845005Y-8889009D01*
X6845005Y-8749004D01*
D18*
X889060Y-2984459D02*
G01*
X952560Y-3047959D01*
X889060Y-3111459D01*
X1143048Y-825474D02*
G01*
X1079548Y-761974D01*
X952548Y-761974D01*
X889048Y-825474D01*
X1143048Y-1079474D02*
G01*
X1079548Y-1015974D01*
X1143048Y-952474D01*
X1143048Y-1333474D02*
G01*
X1079548Y-1269974D01*
X1143048Y-1206474D01*
X1143048Y-1587428D02*
G01*
X1079548Y-1523951D01*
X1143048Y-1460451D01*
X1143048Y-1841423D02*
G01*
X1079548Y-1777923D01*
X1143048Y-1714423D01*
X1143048Y-2095423D02*
G01*
X1079548Y-2031923D01*
X1143048Y-1968423D01*
X1143048Y-2349423D02*
G01*
X1079548Y-2285923D01*
X1143048Y-2222423D01*
X1143048Y-2603423D02*
G01*
X1079548Y-2539923D01*
X1143048Y-2476423D01*
X1143048Y-2857423D02*
G01*
X1079548Y-2793923D01*
X1143048Y-2730423D01*
X1143048Y-3111423D02*
G01*
X1079548Y-3047923D01*
X1143048Y-2984423D01*
X1143048Y-3365423D02*
G01*
X1079548Y-3301923D01*
X1143048Y-3238423D01*
X1143048Y-3619423D02*
G01*
X1079548Y-3555923D01*
X1143048Y-3492423D01*
X1143048Y-3873451D02*
G01*
X1079548Y-3809928D01*
X1143048Y-3746423D01*
X1143048Y-4127459D02*
G01*
X1079548Y-4063959D01*
X1143048Y-4000459D01*
X1143048Y-4381459D02*
G01*
X1079548Y-4317959D01*
X1143048Y-4254459D01*
X889048Y-4508459D02*
G01*
X952548Y-4571959D01*
X1079548Y-4571959D01*
X1143048Y-4508459D01*
X889048Y-4254459D02*
G01*
X952548Y-4317959D01*
X889048Y-4381459D01*
X889048Y-4000459D02*
G01*
X952548Y-4063959D01*
X889048Y-4127459D01*
X889048Y-3746423D02*
G01*
X952548Y-3809928D01*
X889048Y-3873451D01*
X889048Y-1460451D02*
G01*
X952548Y-1523951D01*
X889048Y-1587428D01*
X889048Y-952474D02*
G01*
X952548Y-1015974D01*
X889048Y-1079474D01*
X889048Y-1206474D02*
G01*
X952548Y-1269974D01*
X889048Y-1333474D01*
X889048Y-1714423D02*
G01*
X952548Y-1777923D01*
X889048Y-1841423D01*
X889048Y-1968423D02*
G01*
X952548Y-2031923D01*
X889048Y-2095423D01*
X889048Y-2222423D02*
G01*
X952548Y-2285923D01*
X889048Y-2349423D01*
X889048Y-2476423D02*
G01*
X952548Y-2539923D01*
X889048Y-2603423D01*
X889048Y-2730423D02*
G01*
X952548Y-2793923D01*
X889048Y-2857423D01*
X889048Y-3238423D02*
G01*
X952548Y-3301923D01*
X889048Y-3365423D01*
X889048Y-3492423D02*
G01*
X952548Y-3555923D01*
X889048Y-3619423D01*
X889048Y-3746423D02*
G01*
X952548Y-3809928D01*
X889048Y-3873451D01*
X889048Y-4000459D01*
X952548Y-4063959D01*
X889048Y-4127459D01*
X889048Y-4254459D01*
X952548Y-4317959D01*
X889048Y-4381459D01*
X889048Y-4508459D01*
X952548Y-4571959D01*
X1079548Y-4571959D01*
X1143048Y-4508459D01*
X1143048Y-4381459D01*
X1079548Y-4317959D01*
X1143048Y-4254459D01*
X1143048Y-4127459D01*
X1079548Y-4063959D01*
X1143048Y-4000459D01*
X1143048Y-3873451D01*
X1079548Y-3809928D01*
X1143048Y-3746423D01*
X1143048Y-3619423D01*
X1079548Y-3555923D01*
X1143048Y-3492423D01*
X1143048Y-3365423D01*
X1079548Y-3301923D01*
X1143048Y-3238423D01*
X1143048Y-3111423D01*
X1079548Y-3047923D01*
X1143048Y-2984423D01*
X1143048Y-2857423D01*
X1079548Y-2793923D01*
X1143048Y-2730423D01*
X1143048Y-2603423D01*
X1079548Y-2539923D01*
X1143048Y-2476423D01*
X1143048Y-2349423D01*
X1079548Y-2285923D01*
X1143048Y-2222423D01*
X1143048Y-2095423D01*
X1079548Y-2031923D01*
X1143048Y-1968423D01*
X1143048Y-1841423D01*
X1079548Y-1777923D01*
X1143048Y-1714423D01*
X1143048Y-1587428D01*
X1079548Y-1523951D01*
X1143048Y-1460451D01*
X1143048Y-1333474D01*
X1079548Y-1269974D01*
X1143048Y-1206474D01*
X1143048Y-1079474D01*
X1079548Y-1015974D01*
X1143048Y-952474D01*
X1143048Y-825474D01*
X1079548Y-761974D01*
X952548Y-761974D01*
X889048Y-825474D01*
X2666956Y-2349525D02*
G01*
X2603456Y-2286025D01*
X2666956Y-2222525D01*
X2666966Y-1587566D02*
G01*
X2603466Y-1524063D01*
X2666966Y-1460538D01*
X2666966Y-1333525D01*
X2603466Y-1270025D01*
X2666966Y-1206525D01*
X2666966Y-1079525D01*
X2603466Y-1016025D01*
X2666966Y-952525D01*
X2666966Y-825525D01*
X2603466Y-762025D01*
X2476466Y-762025D01*
X2412966Y-825525D01*
X2412966Y-952525D01*
X2476466Y-1016025D01*
X2412966Y-1079525D01*
X2412966Y-1206525D01*
X2476466Y-1270025D01*
X2412966Y-1333525D01*
X2412966Y-1460538D01*
X2476466Y-1524063D01*
X2412966Y-1587566D01*
X2412966Y-1714566D01*
X2476466Y-1778066D01*
X2412966Y-1841566D01*
X2412966Y-1968566D01*
X2476466Y-2032066D01*
X2412966Y-2095566D01*
X2412966Y-2222566D01*
X2476466Y-2286066D01*
X2412966Y-2349566D01*
X2412966Y-2476566D01*
X2476466Y-2540066D01*
X2412966Y-2603566D01*
X2412966Y-2730566D01*
X2476466Y-2794066D01*
X2412966Y-2857566D01*
X2412966Y-2984566D01*
X2476466Y-3048066D01*
X2412966Y-3111566D01*
X2412966Y-3238566D01*
X2476466Y-3302066D01*
X2412966Y-3365566D01*
X2412966Y-3492566D01*
X2476466Y-3556066D01*
X2412966Y-3619566D01*
X2412966Y-3746560D01*
X2476466Y-3810038D01*
X2412966Y-3873538D01*
X2412966Y-4000515D01*
X2476466Y-4064015D01*
X2412966Y-4127515D01*
X2412966Y-4254515D01*
X2476466Y-4318015D01*
X2412966Y-4381515D01*
X2412966Y-4508515D01*
X2476466Y-4572015D01*
X2603466Y-4572015D01*
X2666966Y-4508515D01*
X2666966Y-3873538D02*
G01*
X2603466Y-3810038D01*
X2666966Y-3746560D01*
X2666966Y-4381515D02*
G01*
X2603466Y-4318015D01*
X2666966Y-4254515D01*
X2666966Y-4127515D02*
G01*
X2603466Y-4064015D01*
X2666966Y-4000515D01*
X2666966Y-3619566D02*
G01*
X2603466Y-3556066D01*
X2666966Y-3492566D01*
X2666966Y-3365566D02*
G01*
X2603466Y-3302066D01*
X2666966Y-3238566D01*
X2666966Y-3111566D02*
G01*
X2603466Y-3048066D01*
X2666966Y-2984566D01*
X2666966Y-2857566D02*
G01*
X2603466Y-2794066D01*
X2666966Y-2730566D01*
X2666966Y-2603566D02*
G01*
X2603466Y-2540066D01*
X2666966Y-2476566D01*
X2666966Y-2095566D02*
G01*
X2603466Y-2032066D01*
X2666966Y-1968566D01*
X2666966Y-1841566D02*
G01*
X2603466Y-1778066D01*
X2666966Y-1714566D01*
X2057400Y-896620D02*
G01*
X2032010Y-896620D01*
X2057400Y-508000D02*
G01*
X2057400Y-355600D01*
X1498600Y-355600D01*
X1498600Y-896620D01*
X1519504Y-896620D01*
X2057400Y-508000D02*
G01*
X2057400Y-896620D01*
X2032010Y-896620D02*
G01*
X1524000Y-896620D01*
D12*
X2674617Y-500379D02*
G01*
X2674617Y-4833612D01*
X881379Y-4833612D01*
X881379Y-500379D01*
X2674617Y-500379D01*
D15*
X5095999Y-1077013D02*
G01*
X5095999Y-1716986D01*
X7096000Y-1496819D02*
G01*
X7096000Y-1716813D01*
X5377934Y-1077013D02*
G01*
X5290065Y-1077013D01*
X5631934Y-1077013D02*
G01*
X5544065Y-1077013D01*
X5885934Y-1077013D02*
G01*
X5798065Y-1077013D01*
X6139934Y-1077013D02*
G01*
X6052065Y-1077013D01*
X6393934Y-1077013D02*
G01*
X6306065Y-1077013D01*
X6647934Y-1077013D02*
G01*
X6560065Y-1077013D01*
X6901934Y-1077013D02*
G01*
X6814065Y-1077013D01*
X7096000Y-1077013D02*
G01*
X7068065Y-1077013D01*
X5124066Y-1716813D02*
G01*
X5095999Y-1716813D01*
X5378066Y-1716813D02*
G01*
X5289933Y-1716813D01*
X5632066Y-1716813D02*
G01*
X5543933Y-1716813D01*
X5886066Y-1716813D02*
G01*
X5797933Y-1716813D01*
X6140066Y-1716813D02*
G01*
X6051933Y-1716813D01*
X6394066Y-1716813D02*
G01*
X6305933Y-1716813D01*
X6648066Y-1716813D02*
G01*
X6559933Y-1716813D01*
X6902066Y-1716813D02*
G01*
X6813933Y-1716813D01*
X7096000Y-1716813D02*
G01*
X7067933Y-1716813D01*
X7096000Y-1077013D02*
G01*
X7096000Y-1297000D01*
X5123934Y-1077013D02*
G01*
X5095999Y-1077013D01*
X2307000Y-5588000D02*
G01*
X2307000Y-5842000D01*
X1248999Y-5588000D02*
G01*
X2307000Y-5588000D01*
X1526352Y-5588000D02*
G01*
X1526352Y-5842000D01*
X1248999Y-5842000D02*
G01*
X2307000Y-5842000D01*
X1248999Y-5588000D02*
G01*
X1248999Y-5842000D01*
X5588000Y-4444949D02*
G01*
X5842000Y-4444949D01*
X5842000Y-4698949D01*
X5588000Y-4698949D01*
X5588000Y-4444949D01*
X5207000Y-4019956D02*
G01*
X7239000Y-4019956D01*
X7239000Y-4938953D01*
X5207000Y-4938953D01*
X5207000Y-4019956D01*
X5968009Y-4799990D02*
G01*
X6462013Y-4799990D01*
X6462013Y-4937988D01*
X5968009Y-4937988D01*
X5968009Y-4799990D01*
X5336489Y-4939995D02*
G01*
X5595493Y-4939995D01*
X5595493Y-5080000D01*
X5336489Y-5080000D01*
X5336489Y-4939995D01*
X6855002Y-4939004D02*
G01*
X7114006Y-4939004D01*
X7114006Y-5079009D01*
X6855002Y-5079009D01*
X6855002Y-4939004D01*
X419100Y-5829300D02*
G01*
X3149091Y-5829300D01*
X3149091Y-8899296D01*
X419100Y-8899296D01*
X419100Y-5829300D01*
X419100Y-6464300D02*
G01*
X3149600Y-6464300D01*
X3149600Y-8013700D01*
X419100Y-8013700D01*
X419100Y-6464300D01*
X1079500Y-8597900D02*
G01*
X2476500Y-8597900D01*
X2476500Y-8902700D01*
X1079500Y-8902700D01*
X1079500Y-8597900D01*
G75*
G01*
X7095998Y-1497000D02*
G02*
X7090994Y-1297000I-2502J100000D01*
G75*
G01
X5534787Y-8544966D02*
G03X5534787Y-8544966I-17958J0D01*
G75*
G01
X7010984Y-1177011D02*
G03X7010984Y-1177011I-29997J0D01*
G75*
G01
X5544795Y-4734966D02*
G03X5544795Y-4734966I-17958J0D01*
M02*
