G04 Layer: BottomSilkscreenLayer*
G04 EasyEDA v6.5.9, 2022-07-24 08:21:13*
G04 5bc8cb45828b4c0bbea3d3a06f8b76a5,bf633cf64d8a430dba0ab8f24d4e683d,10*
G04 Gerber Generator version 0.2*
G04 Scale: 100 percent, Rotated: No, Reflected: No *
G04 Dimensions in millimeters *
G04 leading zeros omitted , absolute positions ,4 integer and 5 decimal *
%FSLAX45Y45*%
%MOMM*%

%ADD10C,0.1524*%
%ADD11C,0.2032*%
%ADD12C,0.2540*%

%LPD*%
D10*
X4064000Y-1302443D02*
G01*
X4053608Y-1297246D01*
X4038023Y-1281661D01*
X4038023Y-1390764D01*
X4003733Y-1281661D02*
G01*
X4003733Y-1390764D01*
X3930995Y-1281661D02*
G01*
X4003733Y-1354396D01*
X3977754Y-1328420D02*
G01*
X3930995Y-1390764D01*
X4064000Y-5874443D02*
G01*
X4053608Y-5869246D01*
X4038023Y-5853661D01*
X4038023Y-5962764D01*
X3972559Y-5853661D02*
G01*
X3988145Y-5858855D01*
X3998536Y-5874443D01*
X4003733Y-5900420D01*
X4003733Y-5916005D01*
X3998536Y-5941984D01*
X3988145Y-5957570D01*
X3972559Y-5962764D01*
X3962168Y-5962764D01*
X3946583Y-5957570D01*
X3936192Y-5941984D01*
X3930995Y-5916005D01*
X3930995Y-5900420D01*
X3936192Y-5874443D01*
X3946583Y-5858855D01*
X3962168Y-5853661D01*
X3972559Y-5853661D01*
X3896705Y-5853661D02*
G01*
X3896705Y-5962764D01*
X3823970Y-5853661D02*
G01*
X3896705Y-5926396D01*
X3870728Y-5900420D02*
G01*
X3823970Y-5962764D01*
D11*
X3048000Y-6706636D02*
G01*
X3048000Y-6849818D01*
X3048000Y-6706636D02*
G01*
X2959364Y-6706636D01*
X3048000Y-6774817D02*
G01*
X2993453Y-6774817D01*
X3048000Y-6849818D02*
G01*
X2959364Y-6849818D01*
X2914362Y-6754362D02*
G01*
X2914362Y-6822546D01*
X2907545Y-6843000D01*
X2893908Y-6849818D01*
X2873453Y-6849818D01*
X2859819Y-6843000D01*
X2839364Y-6822546D01*
X2839364Y-6754362D02*
G01*
X2839364Y-6849818D01*
X2794363Y-6754362D02*
G01*
X2794363Y-6849818D01*
X2794363Y-6795272D02*
G01*
X2787545Y-6774817D01*
X2773908Y-6761182D01*
X2760273Y-6754362D01*
X2739819Y-6754362D01*
X2660728Y-6754362D02*
G01*
X2674363Y-6761182D01*
X2688000Y-6774817D01*
X2694818Y-6795272D01*
X2694818Y-6808909D01*
X2688000Y-6829364D01*
X2674363Y-6843000D01*
X2660728Y-6849818D01*
X2640274Y-6849818D01*
X2626636Y-6843000D01*
X2612999Y-6829364D01*
X2606182Y-6808909D01*
X2606182Y-6795272D01*
X2612999Y-6774817D01*
X2626636Y-6761182D01*
X2640274Y-6754362D01*
X2660728Y-6754362D01*
X2561183Y-6754362D02*
G01*
X2561183Y-6849818D01*
X2561183Y-6795272D02*
G01*
X2554363Y-6774817D01*
X2540728Y-6761182D01*
X2527091Y-6754362D01*
X2506637Y-6754362D01*
X2379819Y-6754362D02*
G01*
X2379819Y-6849818D01*
X2379819Y-6774817D02*
G01*
X2393454Y-6761182D01*
X2407091Y-6754362D01*
X2427546Y-6754362D01*
X2441183Y-6761182D01*
X2454818Y-6774817D01*
X2461638Y-6795272D01*
X2461638Y-6808909D01*
X2454818Y-6829364D01*
X2441183Y-6843000D01*
X2427546Y-6849818D01*
X2407091Y-6849818D01*
X2393454Y-6843000D01*
X2379819Y-6829364D01*
X2253000Y-6774817D02*
G01*
X2266637Y-6761182D01*
X2280274Y-6754362D01*
X2300729Y-6754362D01*
X2314364Y-6761182D01*
X2328001Y-6774817D01*
X2334818Y-6795272D01*
X2334818Y-6808909D01*
X2328001Y-6829364D01*
X2314364Y-6843000D01*
X2300729Y-6849818D01*
X2280274Y-6849818D01*
X2266637Y-6843000D01*
X2253000Y-6829364D01*
X2208001Y-6706636D02*
G01*
X2208001Y-6849818D01*
X2139820Y-6754362D02*
G01*
X2208001Y-6822546D01*
X2180729Y-6795272D02*
G01*
X2133000Y-6849818D01*
X1880730Y-6740728D02*
G01*
X1887547Y-6727090D01*
X1901184Y-6713453D01*
X1914819Y-6706636D01*
X1942094Y-6706636D01*
X1955728Y-6713453D01*
X1969366Y-6727090D01*
X1976183Y-6740728D01*
X1983000Y-6761182D01*
X1983000Y-6795272D01*
X1976183Y-6815726D01*
X1969366Y-6829364D01*
X1955728Y-6843000D01*
X1942094Y-6849818D01*
X1914819Y-6849818D01*
X1901184Y-6843000D01*
X1887547Y-6829364D01*
X1880730Y-6815726D01*
X1753910Y-6754362D02*
G01*
X1753910Y-6849818D01*
X1753910Y-6774817D02*
G01*
X1767547Y-6761182D01*
X1781185Y-6754362D01*
X1801639Y-6754362D01*
X1815274Y-6761182D01*
X1828911Y-6774817D01*
X1835729Y-6795272D01*
X1835729Y-6808909D01*
X1828911Y-6829364D01*
X1815274Y-6843000D01*
X1801639Y-6849818D01*
X1781185Y-6849818D01*
X1767547Y-6843000D01*
X1753910Y-6829364D01*
X1708912Y-6706636D02*
G01*
X1708912Y-6849818D01*
X1708912Y-6774817D02*
G01*
X1695274Y-6761182D01*
X1681640Y-6754362D01*
X1661185Y-6754362D01*
X1647548Y-6761182D01*
X1633910Y-6774817D01*
X1627093Y-6795272D01*
X1627093Y-6808909D01*
X1633910Y-6829364D01*
X1647548Y-6843000D01*
X1661185Y-6849818D01*
X1681640Y-6849818D01*
X1695274Y-6843000D01*
X1708912Y-6829364D01*
X1582094Y-6706636D02*
G01*
X1582094Y-6849818D01*
X1537093Y-6795272D02*
G01*
X1455275Y-6795272D01*
X1455275Y-6781637D01*
X1462095Y-6768000D01*
X1468912Y-6761182D01*
X1482549Y-6754362D01*
X1503001Y-6754362D01*
X1516639Y-6761182D01*
X1530276Y-6774817D01*
X1537093Y-6795272D01*
X1537093Y-6808909D01*
X1530276Y-6829364D01*
X1516639Y-6843000D01*
X1503001Y-6849818D01*
X1482549Y-6849818D01*
X1468912Y-6843000D01*
X1455275Y-6829364D01*
X1257548Y-6706636D02*
G01*
X1257548Y-6849818D01*
X1305275Y-6706636D02*
G01*
X1209822Y-6706636D01*
X1164821Y-6795272D02*
G01*
X1083002Y-6795272D01*
X1083002Y-6781637D01*
X1089822Y-6768000D01*
X1096639Y-6761182D01*
X1110277Y-6754362D01*
X1130731Y-6754362D01*
X1144366Y-6761182D01*
X1158003Y-6774817D01*
X1164821Y-6795272D01*
X1164821Y-6808909D01*
X1158003Y-6829364D01*
X1144366Y-6843000D01*
X1130731Y-6849818D01*
X1110277Y-6849818D01*
X1096639Y-6843000D01*
X1083002Y-6829364D01*
X963002Y-6774817D02*
G01*
X969822Y-6761182D01*
X990277Y-6754362D01*
X1010732Y-6754362D01*
X1031186Y-6761182D01*
X1038004Y-6774817D01*
X1031186Y-6788454D01*
X1017549Y-6795272D01*
X983457Y-6802092D01*
X969822Y-6808909D01*
X963002Y-6822546D01*
X963002Y-6829364D01*
X969822Y-6843000D01*
X990277Y-6849818D01*
X1010732Y-6849818D01*
X1031186Y-6843000D01*
X1038004Y-6829364D01*
X897549Y-6706636D02*
G01*
X897549Y-6822546D01*
X890732Y-6843000D01*
X877095Y-6849818D01*
X863457Y-6849818D01*
X918004Y-6754362D02*
G01*
X870277Y-6754362D01*
X818459Y-6795272D02*
G01*
X736640Y-6795272D01*
X736640Y-6781637D01*
X743457Y-6768000D01*
X750277Y-6761182D01*
X763912Y-6754362D01*
X784367Y-6754362D01*
X798004Y-6761182D01*
X811641Y-6774817D01*
X818459Y-6795272D01*
X818459Y-6808909D01*
X811641Y-6829364D01*
X798004Y-6843000D01*
X784367Y-6849818D01*
X763912Y-6849818D01*
X750277Y-6843000D01*
X736640Y-6829364D01*
X691642Y-6754362D02*
G01*
X691642Y-6849818D01*
X691642Y-6795272D02*
G01*
X684822Y-6774817D01*
X671187Y-6761182D01*
X657550Y-6754362D01*
X637095Y-6754362D01*
X2732999Y-6958236D02*
G01*
X2732999Y-7101418D01*
X2732999Y-7026417D02*
G01*
X2719364Y-7012782D01*
X2705727Y-7005962D01*
X2685272Y-7005962D01*
X2671638Y-7012782D01*
X2658000Y-7026417D01*
X2651183Y-7046871D01*
X2651183Y-7060509D01*
X2658000Y-7080963D01*
X2671638Y-7094599D01*
X2685272Y-7101418D01*
X2705727Y-7101418D01*
X2719364Y-7094599D01*
X2732999Y-7080963D01*
X2599364Y-7005962D02*
G01*
X2558455Y-7101418D01*
X2517546Y-7005962D02*
G01*
X2558455Y-7101418D01*
X2572092Y-7128690D01*
X2585727Y-7142327D01*
X2599364Y-7149144D01*
X2606182Y-7149144D01*
X2367546Y-6958236D02*
G01*
X2367546Y-7101418D01*
X2367546Y-7101418D02*
G01*
X2285728Y-7101418D01*
X2240729Y-7005962D02*
G01*
X2240729Y-7074146D01*
X2233909Y-7094599D01*
X2220274Y-7101418D01*
X2199820Y-7101418D01*
X2186183Y-7094599D01*
X2165728Y-7074146D01*
X2165728Y-7005962D02*
G01*
X2165728Y-7101418D01*
X2120729Y-6958236D02*
G01*
X2113909Y-6965053D01*
X2107092Y-6958236D01*
X2113909Y-6951418D01*
X2120729Y-6958236D01*
X2113909Y-7005962D02*
G01*
X2113909Y-7101418D01*
X1950275Y-6992327D02*
G01*
X1950275Y-6985508D01*
X1943455Y-6971873D01*
X1936638Y-6965053D01*
X1923000Y-6958236D01*
X1895729Y-6958236D01*
X1882094Y-6965053D01*
X1875274Y-6971873D01*
X1868457Y-6985508D01*
X1868457Y-6999145D01*
X1875274Y-7012782D01*
X1888911Y-7033237D01*
X1957092Y-7101418D01*
X1861639Y-7101418D01*
X1809821Y-6992327D02*
G01*
X1809821Y-6985508D01*
X1803001Y-6971873D01*
X1796183Y-6965053D01*
X1782549Y-6958236D01*
X1755274Y-6958236D01*
X1741639Y-6965053D01*
X1734820Y-6971873D01*
X1728002Y-6985508D01*
X1728002Y-6999145D01*
X1734820Y-7012782D01*
X1748457Y-7033237D01*
X1816638Y-7101418D01*
X1721185Y-7101418D01*
X1635274Y-6958236D02*
G01*
X1655729Y-6965053D01*
X1669366Y-6985508D01*
X1676184Y-7019599D01*
X1676184Y-7040054D01*
X1669366Y-7074146D01*
X1655729Y-7094599D01*
X1635274Y-7101418D01*
X1621640Y-7101418D01*
X1601185Y-7094599D01*
X1587548Y-7074146D01*
X1580730Y-7040054D01*
X1580730Y-7019599D01*
X1587548Y-6985508D01*
X1601185Y-6965053D01*
X1621640Y-6958236D01*
X1635274Y-6958236D01*
X1453911Y-6958236D02*
G01*
X1522095Y-6958236D01*
X1528912Y-7019599D01*
X1522095Y-7012782D01*
X1501640Y-7005962D01*
X1481185Y-7005962D01*
X1460731Y-7012782D01*
X1447093Y-7026417D01*
X1440276Y-7046871D01*
X1440276Y-7060509D01*
X1447093Y-7080963D01*
X1460731Y-7094599D01*
X1481185Y-7101418D01*
X1501640Y-7101418D01*
X1522095Y-7094599D01*
X1528912Y-7087781D01*
X1535729Y-7074146D01*
X1395275Y-6985508D02*
G01*
X1381640Y-6978690D01*
X1361186Y-6958236D01*
X1361186Y-7101418D01*
X1234366Y-6958236D02*
G01*
X1302550Y-6958236D01*
X1309367Y-7019599D01*
X1302550Y-7012782D01*
X1282095Y-7005962D01*
X1261640Y-7005962D01*
X1241186Y-7012782D01*
X1227548Y-7026417D01*
X1220731Y-7046871D01*
X1220731Y-7060509D01*
X1227548Y-7080963D01*
X1241186Y-7094599D01*
X1261640Y-7101418D01*
X1282095Y-7101418D01*
X1302550Y-7094599D01*
X1309367Y-7087781D01*
X1316184Y-7074146D01*
X1175730Y-7005962D02*
G01*
X1134821Y-7101418D01*
X1093911Y-7005962D02*
G01*
X1134821Y-7101418D01*
X1048913Y-6985508D02*
G01*
X1035276Y-6978690D01*
X1014821Y-6958236D01*
X1014821Y-7101418D01*
X963002Y-7067326D02*
G01*
X969822Y-7074146D01*
X963002Y-7080963D01*
X956185Y-7074146D01*
X963002Y-7067326D01*
X870277Y-6958236D02*
G01*
X890732Y-6965053D01*
X904367Y-6985508D01*
X911186Y-7019599D01*
X911186Y-7040054D01*
X904367Y-7074146D01*
X890732Y-7094599D01*
X870277Y-7101418D01*
X856640Y-7101418D01*
X836185Y-7094599D01*
X822551Y-7074146D01*
X815731Y-7040054D01*
X815731Y-7019599D01*
X822551Y-6985508D01*
X836185Y-6965053D01*
X856640Y-6958236D01*
X870277Y-6958236D01*
X2732999Y-7209835D02*
G01*
X2732999Y-7353018D01*
X2688000Y-7257562D02*
G01*
X2688000Y-7325746D01*
X2681183Y-7346199D01*
X2667546Y-7353018D01*
X2647091Y-7353018D01*
X2633454Y-7346199D01*
X2612999Y-7325746D01*
X2612999Y-7257562D02*
G01*
X2612999Y-7353018D01*
X2568000Y-7209835D02*
G01*
X2561183Y-7216653D01*
X2554363Y-7209835D01*
X2561183Y-7203018D01*
X2568000Y-7209835D01*
X2561183Y-7257562D02*
G01*
X2561183Y-7353018D01*
X2434363Y-7278016D02*
G01*
X2441183Y-7264382D01*
X2461638Y-7257562D01*
X2482093Y-7257562D01*
X2502547Y-7264382D01*
X2509365Y-7278016D01*
X2502547Y-7291654D01*
X2488910Y-7298471D01*
X2454818Y-7305291D01*
X2441183Y-7312108D01*
X2434363Y-7325746D01*
X2434363Y-7332563D01*
X2441183Y-7346199D01*
X2461638Y-7353018D01*
X2482093Y-7353018D01*
X2502547Y-7346199D01*
X2509365Y-7332563D01*
X2307546Y-7257562D02*
G01*
X2307546Y-7366652D01*
X2314364Y-7387107D01*
X2321184Y-7393927D01*
X2334818Y-7400744D01*
X2355273Y-7400744D01*
X2368910Y-7393927D01*
X2307546Y-7278016D02*
G01*
X2321184Y-7264382D01*
X2334818Y-7257562D01*
X2355273Y-7257562D01*
X2368910Y-7264382D01*
X2382547Y-7278016D01*
X2389365Y-7298471D01*
X2389365Y-7312108D01*
X2382547Y-7332563D01*
X2368910Y-7346199D01*
X2355273Y-7353018D01*
X2334818Y-7353018D01*
X2321184Y-7346199D01*
X2307546Y-7332563D01*
X2228456Y-7257562D02*
G01*
X2242093Y-7264382D01*
X2255728Y-7278016D01*
X2262548Y-7298471D01*
X2262548Y-7312108D01*
X2255728Y-7332563D01*
X2242093Y-7346199D01*
X2228456Y-7353018D01*
X2208001Y-7353018D01*
X2194364Y-7346199D01*
X2180729Y-7332563D01*
X2173909Y-7312108D01*
X2173909Y-7298471D01*
X2180729Y-7278016D01*
X2194364Y-7264382D01*
X2208001Y-7257562D01*
X2228456Y-7257562D01*
X2128911Y-7257562D02*
G01*
X2128911Y-7353018D01*
X2128911Y-7284836D02*
G01*
X2108456Y-7264382D01*
X2094819Y-7257562D01*
X2074364Y-7257562D01*
X2060729Y-7264382D01*
X2053910Y-7284836D01*
X2053910Y-7353018D01*
X1927092Y-7257562D02*
G01*
X1927092Y-7366652D01*
X1933910Y-7387107D01*
X1940730Y-7393927D01*
X1954364Y-7400744D01*
X1974819Y-7400744D01*
X1988456Y-7393927D01*
X1927092Y-7278016D02*
G01*
X1940730Y-7264382D01*
X1954364Y-7257562D01*
X1974819Y-7257562D01*
X1988456Y-7264382D01*
X2002094Y-7278016D01*
X2008911Y-7298471D01*
X2008911Y-7312108D01*
X2002094Y-7332563D01*
X1988456Y-7346199D01*
X1974819Y-7353018D01*
X1954364Y-7353018D01*
X1940730Y-7346199D01*
X1927092Y-7332563D01*
X1848002Y-7257562D02*
G01*
X1861639Y-7264382D01*
X1875274Y-7278016D01*
X1882094Y-7298471D01*
X1882094Y-7312108D01*
X1875274Y-7332563D01*
X1861639Y-7346199D01*
X1848002Y-7353018D01*
X1827547Y-7353018D01*
X1813910Y-7346199D01*
X1800275Y-7332563D01*
X1793455Y-7312108D01*
X1793455Y-7298471D01*
X1800275Y-7278016D01*
X1813910Y-7264382D01*
X1827547Y-7257562D01*
X1848002Y-7257562D01*
X1666638Y-7209835D02*
G01*
X1666638Y-7353018D01*
X1666638Y-7278016D02*
G01*
X1680276Y-7264382D01*
X1693910Y-7257562D01*
X1714365Y-7257562D01*
X1728002Y-7264382D01*
X1741639Y-7278016D01*
X1748457Y-7298471D01*
X1748457Y-7312108D01*
X1741639Y-7332563D01*
X1728002Y-7346199D01*
X1714365Y-7353018D01*
X1693910Y-7353018D01*
X1680276Y-7346199D01*
X1666638Y-7332563D01*
X3048000Y-7461435D02*
G01*
X3048000Y-7604617D01*
X3048000Y-7461435D02*
G01*
X2986636Y-7461435D01*
X2966181Y-7468252D01*
X2959364Y-7475072D01*
X2952546Y-7488707D01*
X2952546Y-7502344D01*
X2959364Y-7515981D01*
X2966181Y-7522799D01*
X2986636Y-7529616D01*
X3048000Y-7529616D01*
X3000273Y-7529616D02*
G01*
X2952546Y-7604617D01*
X2907545Y-7550071D02*
G01*
X2825727Y-7550071D01*
X2825727Y-7536436D01*
X2832547Y-7522799D01*
X2839364Y-7515981D01*
X2853000Y-7509162D01*
X2873453Y-7509162D01*
X2887090Y-7515981D01*
X2900728Y-7529616D01*
X2907545Y-7550071D01*
X2907545Y-7563708D01*
X2900728Y-7584163D01*
X2887090Y-7597800D01*
X2873453Y-7604617D01*
X2853000Y-7604617D01*
X2839364Y-7597800D01*
X2825727Y-7584163D01*
X2780728Y-7509162D02*
G01*
X2780728Y-7604617D01*
X2780728Y-7536436D02*
G01*
X2760273Y-7515981D01*
X2746636Y-7509162D01*
X2726181Y-7509162D01*
X2712547Y-7515981D01*
X2705727Y-7536436D01*
X2705727Y-7604617D01*
X2705727Y-7536436D02*
G01*
X2685272Y-7515981D01*
X2671638Y-7509162D01*
X2651183Y-7509162D01*
X2637546Y-7515981D01*
X2630728Y-7536436D01*
X2630728Y-7604617D01*
X2585727Y-7461435D02*
G01*
X2578910Y-7468252D01*
X2572092Y-7461435D01*
X2578910Y-7454618D01*
X2585727Y-7461435D01*
X2578910Y-7509162D02*
G01*
X2578910Y-7604617D01*
X2527091Y-7509162D02*
G01*
X2452093Y-7604617D01*
X2452093Y-7509162D02*
G01*
X2527091Y-7604617D01*
X2268001Y-7509162D02*
G01*
X2281638Y-7515981D01*
X2295273Y-7529616D01*
X2302093Y-7550071D01*
X2302093Y-7563708D01*
X2295273Y-7584163D01*
X2281638Y-7597800D01*
X2268001Y-7604617D01*
X2247546Y-7604617D01*
X2233909Y-7597800D01*
X2220274Y-7584163D01*
X2213455Y-7563708D01*
X2213455Y-7550071D01*
X2220274Y-7529616D01*
X2233909Y-7515981D01*
X2247546Y-7509162D01*
X2268001Y-7509162D01*
X2113909Y-7461435D02*
G01*
X2127547Y-7461435D01*
X2141184Y-7468252D01*
X2148001Y-7488707D01*
X2148001Y-7604617D01*
X2168456Y-7509162D02*
G01*
X2120729Y-7509162D01*
X2732999Y-7713035D02*
G01*
X2732999Y-7856217D01*
X2732999Y-7788036D02*
G01*
X2712547Y-7767581D01*
X2698910Y-7760761D01*
X2678455Y-7760761D01*
X2664818Y-7767581D01*
X2658000Y-7788036D01*
X2658000Y-7856217D01*
X2578910Y-7760761D02*
G01*
X2592547Y-7767581D01*
X2606182Y-7781216D01*
X2612999Y-7801670D01*
X2612999Y-7815308D01*
X2606182Y-7835762D01*
X2592547Y-7849397D01*
X2578910Y-7856217D01*
X2558455Y-7856217D01*
X2544818Y-7849397D01*
X2531183Y-7835762D01*
X2524363Y-7815308D01*
X2524363Y-7801670D01*
X2531183Y-7781216D01*
X2544818Y-7767581D01*
X2558455Y-7760761D01*
X2578910Y-7760761D01*
X2479365Y-7713035D02*
G01*
X2479365Y-7856217D01*
X2434363Y-7760761D02*
G01*
X2434363Y-7856217D01*
X2434363Y-7788036D02*
G01*
X2413909Y-7767581D01*
X2400274Y-7760761D01*
X2379819Y-7760761D01*
X2366182Y-7767581D01*
X2359365Y-7788036D01*
X2359365Y-7856217D01*
X2359365Y-7788036D02*
G01*
X2338910Y-7767581D01*
X2325273Y-7760761D01*
X2304818Y-7760761D01*
X2291184Y-7767581D01*
X2284364Y-7788036D01*
X2284364Y-7856217D01*
X2239365Y-7801670D02*
G01*
X2157547Y-7801670D01*
X2157547Y-7788036D01*
X2164364Y-7774398D01*
X2171184Y-7767581D01*
X2184819Y-7760761D01*
X2205273Y-7760761D01*
X2218910Y-7767581D01*
X2232548Y-7781216D01*
X2239365Y-7801670D01*
X2239365Y-7815308D01*
X2232548Y-7835762D01*
X2218910Y-7849397D01*
X2205273Y-7856217D01*
X2184819Y-7856217D01*
X2171184Y-7849397D01*
X2157547Y-7835762D01*
X2037547Y-7781216D02*
G01*
X2044364Y-7767581D01*
X2064819Y-7760761D01*
X2085273Y-7760761D01*
X2105728Y-7767581D01*
X2112548Y-7781216D01*
X2105728Y-7794853D01*
X2092093Y-7801670D01*
X2058001Y-7808490D01*
X2044364Y-7815308D01*
X2037547Y-7828945D01*
X2037547Y-7835762D01*
X2044364Y-7849397D01*
X2064819Y-7856217D01*
X2085273Y-7856217D01*
X2105728Y-7849397D01*
X2112548Y-7835762D01*
X1992548Y-7760761D02*
G01*
X1992548Y-7856217D01*
X1992548Y-7801670D02*
G01*
X1985728Y-7781216D01*
X1972094Y-7767581D01*
X1958456Y-7760761D01*
X1938002Y-7760761D01*
X1893001Y-7713035D02*
G01*
X1886183Y-7719852D01*
X1879366Y-7713035D01*
X1886183Y-7706217D01*
X1893001Y-7713035D01*
X1886183Y-7760761D02*
G01*
X1886183Y-7856217D01*
X1752549Y-7781216D02*
G01*
X1766183Y-7767581D01*
X1779821Y-7760761D01*
X1800275Y-7760761D01*
X1813910Y-7767581D01*
X1827547Y-7781216D01*
X1834365Y-7801670D01*
X1834365Y-7815308D01*
X1827547Y-7835762D01*
X1813910Y-7849397D01*
X1800275Y-7856217D01*
X1779821Y-7856217D01*
X1766183Y-7849397D01*
X1752549Y-7835762D01*
X1707548Y-7713035D02*
G01*
X1707548Y-7856217D01*
X1707548Y-7788036D02*
G01*
X1687093Y-7767581D01*
X1673456Y-7760761D01*
X1653001Y-7760761D01*
X1639366Y-7767581D01*
X1632549Y-7788036D01*
X1632549Y-7856217D01*
X1505729Y-7760761D02*
G01*
X1505729Y-7856217D01*
X1505729Y-7781216D02*
G01*
X1519367Y-7767581D01*
X1533001Y-7760761D01*
X1553456Y-7760761D01*
X1567093Y-7767581D01*
X1580730Y-7781216D01*
X1587548Y-7801670D01*
X1587548Y-7815308D01*
X1580730Y-7835762D01*
X1567093Y-7849397D01*
X1553456Y-7856217D01*
X1533001Y-7856217D01*
X1519367Y-7849397D01*
X1505729Y-7835762D01*
X1460731Y-7760761D02*
G01*
X1460731Y-7856217D01*
X1460731Y-7801670D02*
G01*
X1453911Y-7781216D01*
X1440276Y-7767581D01*
X1426639Y-7760761D01*
X1406184Y-7760761D01*
X1279367Y-7713035D02*
G01*
X1279367Y-7856217D01*
X1279367Y-7781216D02*
G01*
X1293002Y-7767581D01*
X1306639Y-7760761D01*
X1327094Y-7760761D01*
X1340731Y-7767581D01*
X1354366Y-7781216D01*
X1361186Y-7801670D01*
X1361186Y-7815308D01*
X1354366Y-7835762D01*
X1340731Y-7849397D01*
X1327094Y-7856217D01*
X1306639Y-7856217D01*
X1293002Y-7849397D01*
X1279367Y-7835762D01*
X1159367Y-7781216D02*
G01*
X1166185Y-7767581D01*
X1186639Y-7760761D01*
X1207094Y-7760761D01*
X1227548Y-7767581D01*
X1234366Y-7781216D01*
X1227548Y-7794853D01*
X1213911Y-7801670D01*
X1179822Y-7808490D01*
X1166185Y-7815308D01*
X1159367Y-7828945D01*
X1159367Y-7835762D01*
X1166185Y-7849397D01*
X1186639Y-7856217D01*
X1207094Y-7856217D01*
X1227548Y-7849397D01*
X1234366Y-7835762D01*
X2712547Y-7964634D02*
G01*
X2712547Y-8080545D01*
X2705727Y-8100997D01*
X2692092Y-8107817D01*
X2678455Y-8107817D01*
X2732999Y-8012361D02*
G01*
X2685272Y-8012361D01*
X2599364Y-8012361D02*
G01*
X2612999Y-8019181D01*
X2626636Y-8032816D01*
X2633454Y-8053270D01*
X2633454Y-8066907D01*
X2626636Y-8087362D01*
X2612999Y-8100997D01*
X2599364Y-8107817D01*
X2578910Y-8107817D01*
X2565272Y-8100997D01*
X2551638Y-8087362D01*
X2544818Y-8066907D01*
X2544818Y-8053270D01*
X2551638Y-8032816D01*
X2565272Y-8019181D01*
X2578910Y-8012361D01*
X2599364Y-8012361D01*
X2499819Y-8012361D02*
G01*
X2499819Y-8107817D01*
X2499819Y-8039635D02*
G01*
X2479365Y-8019181D01*
X2465727Y-8012361D01*
X2445273Y-8012361D01*
X2431638Y-8019181D01*
X2424818Y-8039635D01*
X2424818Y-8107817D01*
X2424818Y-8039635D02*
G01*
X2404363Y-8019181D01*
X2390729Y-8012361D01*
X2370274Y-8012361D01*
X2356637Y-8019181D01*
X2349820Y-8039635D01*
X2349820Y-8107817D01*
X2223000Y-8012361D02*
G01*
X2223000Y-8107817D01*
X2223000Y-8032816D02*
G01*
X2236637Y-8019181D01*
X2250274Y-8012361D01*
X2270729Y-8012361D01*
X2284364Y-8019181D01*
X2298001Y-8032816D01*
X2304818Y-8053270D01*
X2304818Y-8066907D01*
X2298001Y-8087362D01*
X2284364Y-8100997D01*
X2270729Y-8107817D01*
X2250274Y-8107817D01*
X2236637Y-8100997D01*
X2223000Y-8087362D01*
X2178001Y-8012361D02*
G01*
X2178001Y-8107817D01*
X2178001Y-8053270D02*
G01*
X2171184Y-8032816D01*
X2157547Y-8019181D01*
X2143909Y-8012361D01*
X2123455Y-8012361D01*
X2078456Y-8012361D02*
G01*
X2078456Y-8080545D01*
X2071639Y-8100997D01*
X2058001Y-8107817D01*
X2037547Y-8107817D01*
X2023910Y-8100997D01*
X2003455Y-8080545D01*
X2003455Y-8012361D02*
G01*
X2003455Y-8107817D01*
X1883455Y-8032816D02*
G01*
X1890275Y-8019181D01*
X1910730Y-8012361D01*
X1931184Y-8012361D01*
X1951639Y-8019181D01*
X1958456Y-8032816D01*
X1951639Y-8046453D01*
X1938002Y-8053270D01*
X1903910Y-8060090D01*
X1890275Y-8066907D01*
X1883455Y-8080545D01*
X1883455Y-8087362D01*
X1890275Y-8100997D01*
X1910730Y-8107817D01*
X1931184Y-8107817D01*
X1951639Y-8100997D01*
X1958456Y-8087362D01*
D12*
X3175000Y-254000D02*
G01*
X4699000Y-254000D01*
X4699000Y-4699000D01*
X3175000Y-4699000D01*
X3175000Y-254000D01*
X3175000Y-4826000D02*
G01*
X4699000Y-4826000D01*
X4699000Y-9652000D01*
X3175000Y-9652000D01*
X3175000Y-4826000D01*
M02*
